<svg width="170" height="170" viewBox="0 0 170 170" fill="none" xmlns="http://www.w3.org/2000/svg">
<rect width="170" height="170" fill="#D33232"/>
<g filter="url(#filter0_nn_5_596)">
<circle cx="85" cy="85" r="72" fill="#0B0B0B"/>
</g>
<circle cx="84.9999" cy="84.9999" r="32.6034" stroke="#1E1E1E"/>
<circle cx="84.9999" cy="85.0002" r="36.7414" stroke="#1E1E1E"/>
<circle opacity="0.99" cx="84.9999" cy="84.9999" r="40.8793" stroke="#1E1E1E"/>
<circle opacity="0.89" cx="84.9999" cy="85.0002" r="45.0172" stroke="#1E1E1E"/>
<circle opacity="0.89" cx="85.0001" cy="84.9999" r="49.1552" stroke="#1E1E1E"/>
<circle opacity="0.89" cx="85.0001" cy="85.0001" r="53.2931" stroke="#1E1E1E"/>
<circle opacity="0.89" cx="85.0001" cy="84.9999" r="57.431" stroke="#1E1E1E"/>
<circle opacity="0.89" cx="85.0001" cy="85.0001" r="61.569" stroke="#1E1E1E"/>
<circle opacity="0.89" cx="85.0001" cy="84.9999" r="65.7069" stroke="#1E1E1E"/>
<circle cx="84.793" cy="85.2069" r="28.7586" fill="#D33232"/>
<path d="M72.4006 85.9185V85.7427C72.5145 85.7427 72.6097 85.7101 72.6862 85.645C72.7644 85.5799 72.8034 85.4937 72.8034 85.3862V82.9326H72.9792V85.3862C72.9792 85.5409 72.9231 85.6686 72.8107 85.7695C72.6984 85.8688 72.5617 85.9185 72.4006 85.9185ZM72.4006 86.27V86.0942C72.6122 86.0942 72.7904 86.0259 72.9353 85.8892C73.0817 85.7508 73.155 85.5832 73.155 85.3862V82.9326H73.3308V85.3862C73.3308 85.6304 73.2404 85.8387 73.0598 86.0112C72.8807 86.1838 72.661 86.27 72.4006 86.27ZM72.4006 86.6216V86.4458C72.7098 86.4458 72.9711 86.3424 73.1843 86.1357C73.3991 85.929 73.5065 85.6792 73.5065 85.3862V82.9326H73.6823V85.3862C73.6823 85.6092 73.6254 85.8159 73.5114 86.0063C73.3991 86.1951 73.2445 86.3449 73.0476 86.4556C72.8506 86.5662 72.635 86.6216 72.4006 86.6216ZM72.4006 86.9731V86.7974C72.6008 86.7974 72.7904 86.7599 72.9694 86.6851C73.1501 86.6102 73.3047 86.5101 73.4333 86.3848C73.5635 86.2578 73.6669 86.1073 73.7434 85.9331C73.8199 85.759 73.8581 85.5767 73.8581 85.3862V82.9326H74.0339V85.3862C74.0339 85.6011 73.9908 85.8062 73.9045 86.0015C73.8199 86.1968 73.7043 86.3652 73.5578 86.5068C73.413 86.6501 73.2396 86.7632 73.0378 86.8462C72.836 86.9308 72.6236 86.9731 72.4006 86.9731ZM76.7878 84.8906V82.9326H76.9636V84.8906C76.9636 85.0762 76.892 85.2357 76.7487 85.3691C76.6071 85.5026 76.4362 85.5693 76.236 85.5693C76.0358 85.5693 75.8641 85.5026 75.7209 85.3691C75.5793 85.2357 75.5085 85.0762 75.5085 84.8906V82.9326H75.6843V84.8906C75.6843 85.029 75.738 85.1478 75.8454 85.2471C75.9545 85.3447 76.0847 85.3936 76.236 85.3936C76.3874 85.3936 76.5168 85.3447 76.6242 85.2471C76.7333 85.1478 76.7878 85.029 76.7878 84.8906ZM77.1394 84.8906V82.9326H77.3151V84.8906C77.3151 85.1755 77.2093 85.4188 76.9978 85.6206C76.7862 85.8208 76.5323 85.9209 76.236 85.9209C75.9398 85.9209 75.6859 85.8208 75.4743 85.6206C75.2627 85.4188 75.1569 85.1755 75.1569 84.8906V82.9326H75.3327V84.8906C75.3327 85.1266 75.4206 85.3285 75.5964 85.4961C75.7738 85.6621 75.987 85.7451 76.236 85.7451C76.4834 85.7451 76.6958 85.6621 76.8732 85.4961C77.0507 85.3285 77.1394 85.1266 77.1394 84.8906ZM77.4909 84.8906V82.9326H77.6667V84.8906C77.6667 85.1396 77.6024 85.3708 77.4738 85.584C77.3453 85.7956 77.1711 85.9632 76.9514 86.0869C76.7316 86.2106 76.4932 86.2725 76.236 86.2725C75.9789 86.2725 75.7404 86.2106 75.5207 86.0869C75.301 85.9632 75.1268 85.7956 74.9982 85.584C74.8697 85.3708 74.8054 85.1396 74.8054 84.8906V82.9326H74.9812V84.8906C74.9812 85.1071 75.0373 85.3081 75.1496 85.4937C75.2619 85.6792 75.4141 85.8265 75.6062 85.9355C75.7998 86.043 76.0098 86.0967 76.236 86.0967C76.4623 86.0967 76.6714 86.043 76.8635 85.9355C77.0572 85.8265 77.2102 85.6792 77.3225 85.4937C77.4348 85.3081 77.4909 85.1071 77.4909 84.8906ZM77.8425 84.8906V82.9326H78.0183V84.8906C78.0183 85.125 77.9711 85.3496 77.8767 85.5645C77.7823 85.7777 77.6553 85.9616 77.4958 86.1162C77.3363 86.2708 77.1467 86.3937 76.927 86.4849C76.7072 86.5776 76.4769 86.624 76.236 86.624C75.9952 86.624 75.7649 86.5776 75.5451 86.4849C75.3254 86.3937 75.1358 86.2708 74.9763 86.1162C74.8168 85.9616 74.6898 85.7777 74.5954 85.5645C74.501 85.3496 74.4538 85.125 74.4538 84.8906V82.9326H74.6296V84.8906C74.6296 85.1706 74.7012 85.4302 74.8444 85.6694C74.9893 85.9087 75.1846 86.0983 75.4304 86.2383C75.6778 86.3783 75.9463 86.4482 76.236 86.4482C76.5258 86.4482 76.7935 86.3783 77.0393 86.2383C77.2867 86.0983 77.482 85.9087 77.6252 85.6694C77.7701 85.4302 77.8425 85.1706 77.8425 84.8906ZM82.154 82.9326L81.175 84.7051L82.1394 86.4482H81.944L80.9797 84.7051L81.9587 82.9326H82.154ZM81.7609 82.9326L80.7819 84.7051L81.7463 86.4482H81.551L80.5866 84.7051L81.5656 82.9326H81.7609ZM81.3679 82.9326L80.3889 84.7051L81.3532 86.4482H81.1579L80.1936 84.7051L81.1726 82.9326H81.3679ZM80.9748 82.9326L79.9934 84.7051L80.9602 86.4482H80.7649L79.7981 84.7051L80.7795 82.9326H80.9748ZM79.5149 82.9326V86.4482H79.6906V82.9326H79.5149ZM79.1633 82.9326V86.4482H79.3391V82.9326H79.1633ZM78.8117 82.9326V86.4482H78.9875V82.9326H78.8117ZM78.4602 82.9326V86.4482H78.6359V82.9326H78.4602ZM83.3479 86.4482H83.1721V82.9326H83.3479V86.4482ZM82.9963 86.4482H82.8205V82.9326H82.9963V86.4482ZM82.6447 86.4482H82.469V82.9326H82.6447V86.4482ZM83.6994 85.5693H85.3815V85.7451H83.6994V85.9209H85.3815V86.0967H83.6994V86.2725H85.3815V86.4482H83.5236V82.9326H85.3815V83.1084H83.6994V83.2842H85.3815V83.46H83.6994V83.6357H85.3815V83.8115H83.6994V84.2485H85.2839V84.4243H83.6994V84.6001H85.2839V84.7759H83.6994V84.9517H85.2839V85.1274H83.6994V85.5693ZM88.5578 84.6709C88.5562 84.6709 88.5554 84.6717 88.5554 84.6733C88.6335 84.7531 88.6986 84.8516 88.7507 84.9688C88.8028 85.0859 88.8288 85.2048 88.8288 85.3252C88.8288 85.5872 88.7385 85.8078 88.5578 85.9868C88.3788 86.1642 88.1639 86.2529 87.9133 86.2529H86.8024V86.4287H87.9133C88.1119 86.4287 88.2925 86.3856 88.4553 86.2993C88.6197 86.2131 88.7523 86.0853 88.8532 85.916C88.9541 85.7451 89.0046 85.5482 89.0046 85.3252C89.0046 85.0924 88.9346 84.8792 88.7946 84.6855C88.9346 84.4984 89.0046 84.2746 89.0046 84.0142C89.0046 83.8237 88.955 83.6455 88.8557 83.4795C88.7564 83.3118 88.6221 83.1792 88.4528 83.0815C88.2852 82.9823 88.1053 82.9326 87.9133 82.9326H85.8039V86.4482H85.9797V83.1084H87.9133C88.1607 83.1084 88.3747 83.1987 88.5554 83.3794C88.7377 83.5584 88.8288 83.77 88.8288 84.0142C88.8288 84.2713 88.7369 84.4894 88.5529 84.6685L88.5578 84.6709ZM87.9133 85.5498C87.9735 85.5498 88.024 85.5303 88.0647 85.4912C88.1053 85.4521 88.1257 85.3968 88.1257 85.3252C88.1257 85.2666 88.1037 85.2145 88.0598 85.1689C88.0175 85.1234 87.9686 85.1006 87.9133 85.1006H86.8V84.9248H87.9133C88.0158 84.9248 88.1062 84.9655 88.1843 85.0469C88.2624 85.1266 88.3015 85.2194 88.3015 85.3252C88.3015 85.4473 88.2632 85.5449 88.1867 85.6182C88.1119 85.6898 88.0207 85.7256 87.9133 85.7256H86.8024V85.5498H87.9133ZM87.9133 85.9014C88.0679 85.9014 88.2006 85.8477 88.3112 85.7402C88.4219 85.6328 88.4773 85.4945 88.4773 85.3252C88.4773 85.1722 88.4203 85.0379 88.3064 84.9224C88.194 84.8068 88.063 84.749 87.9133 84.749H87.3762H86.8024V84.5732H87.3762H87.9133C88.0679 84.5732 88.2006 84.5212 88.3112 84.417C88.4219 84.3112 88.4773 84.1769 88.4773 84.0142C88.4773 83.8677 88.4203 83.7391 88.3064 83.6284C88.194 83.5161 88.063 83.46 87.9133 83.46H86.3313V86.4482H86.1555V83.2842H87.9133C88.1119 83.2842 88.2844 83.3574 88.4309 83.5039C88.579 83.6488 88.653 83.8188 88.653 84.0142C88.653 84.1574 88.6164 84.2868 88.5432 84.4023C88.4716 84.5163 88.3763 84.6042 88.2575 84.666C88.3763 84.7311 88.4716 84.8239 88.5432 84.9443C88.6164 85.0632 88.653 85.1901 88.653 85.3252C88.653 85.5384 88.5798 85.7174 88.4333 85.8623C88.2885 86.0055 88.1151 86.0771 87.9133 86.0771H86.8024V85.9014H87.9133ZM87.9133 84.2217C87.9735 84.2217 88.024 84.2038 88.0647 84.168C88.1053 84.1322 88.1257 84.0809 88.1257 84.0142C88.1257 83.9621 88.1037 83.9157 88.0598 83.875C88.0175 83.8327 87.9686 83.8115 87.9133 83.8115H86.6828V86.4482H86.507V83.6357H87.9133C88.0158 83.6357 88.1062 83.674 88.1843 83.7505C88.2624 83.827 88.3015 83.9149 88.3015 84.0142C88.3015 84.1313 88.264 84.2249 88.1892 84.2949C88.1143 84.3633 88.0223 84.3975 87.9133 84.3975H86.8024V84.2217H87.9133ZM90.7502 84.1948C90.6135 84.3315 90.5451 84.4967 90.5451 84.6904C90.5451 84.8841 90.6135 85.0501 90.7502 85.1885C90.8885 85.3252 91.0546 85.3936 91.2482 85.3936C91.4419 85.3936 91.6071 85.3252 91.7439 85.1885C91.8822 85.0501 91.9514 84.8841 91.9514 84.6904C91.9514 84.4967 91.8822 84.3315 91.7439 84.1948C91.6071 84.0565 91.4419 83.9873 91.2482 83.9873C91.0546 83.9873 90.8885 84.0565 90.7502 84.1948ZM90.6257 85.313C90.4548 85.1405 90.3693 84.9329 90.3693 84.6904C90.3693 84.4479 90.4548 84.2412 90.6257 84.0703C90.7982 83.8978 91.0057 83.8115 91.2482 83.8115C91.4908 83.8115 91.6975 83.8978 91.8684 84.0703C92.0409 84.2412 92.1272 84.4479 92.1272 84.6904C92.1272 84.9329 92.0409 85.1405 91.8684 85.313C91.6975 85.4839 91.4908 85.5693 91.2482 85.5693C91.0057 85.5693 90.7982 85.4839 90.6257 85.313ZM90.5012 83.9458C90.2961 84.1525 90.1936 84.4007 90.1936 84.6904C90.1936 84.9801 90.2961 85.2284 90.5012 85.4351C90.7079 85.6418 90.9569 85.7451 91.2482 85.7451C91.5396 85.7451 91.7878 85.6418 91.9929 85.4351C92.1996 85.2284 92.3029 84.9801 92.3029 84.6904C92.3029 84.4007 92.1996 84.1525 91.9929 83.9458C91.7878 83.7391 91.5396 83.6357 91.2482 83.6357C90.9569 83.6357 90.7079 83.7391 90.5012 83.9458ZM90.1814 85.3081C90.0723 85.1193 90.0178 84.9134 90.0178 84.6904C90.0178 84.4674 90.0723 84.2616 90.1814 84.0728C90.292 83.884 90.4418 83.735 90.6306 83.626C90.8194 83.5153 91.0253 83.46 91.2482 83.46C91.4712 83.46 91.6771 83.5153 91.8659 83.626C92.0547 83.735 92.2037 83.884 92.3127 84.0728C92.4234 84.2616 92.4787 84.4674 92.4787 84.6904C92.4787 84.9134 92.4234 85.1193 92.3127 85.3081C92.2037 85.4969 92.0547 85.6466 91.8659 85.7573C91.6771 85.8664 91.4712 85.9209 91.2482 85.9209C91.0253 85.9209 90.8194 85.8664 90.6306 85.7573C90.4418 85.6466 90.292 85.4969 90.1814 85.3081ZM89.9519 84.146C89.8786 84.3185 89.842 84.5 89.842 84.6904C89.842 84.8809 89.8786 85.0632 89.9519 85.2373C90.0267 85.4098 90.1268 85.5596 90.2522 85.6865C90.3791 85.8118 90.5288 85.9119 90.7014 85.9868C90.8755 86.0601 91.0578 86.0967 91.2482 86.0967C91.4387 86.0967 91.6202 86.0601 91.7927 85.9868C91.9668 85.9119 92.1166 85.8118 92.2419 85.6865C92.3689 85.5596 92.469 85.4098 92.5422 85.2373C92.6171 85.0632 92.6545 84.8809 92.6545 84.6904C92.6545 84.5 92.6171 84.3185 92.5422 84.146C92.469 83.9718 92.3689 83.8221 92.2419 83.6968C92.1166 83.5698 91.9668 83.4697 91.7927 83.3965C91.6202 83.3216 91.4387 83.2842 91.2482 83.2842C91.0578 83.2842 90.8755 83.3216 90.7014 83.3965C90.5288 83.4697 90.3791 83.5698 90.2522 83.6968C90.1268 83.8221 90.0267 83.9718 89.9519 84.146ZM89.7907 85.3057C89.7077 85.1104 89.6662 84.9053 89.6662 84.6904C89.6662 84.4756 89.7077 84.2705 89.7907 84.0752C89.8754 83.8799 89.9877 83.7122 90.1276 83.5723C90.2692 83.4307 90.4377 83.3184 90.633 83.2354C90.8283 83.1507 91.0334 83.1084 91.2482 83.1084C91.4631 83.1084 91.6682 83.1507 91.8635 83.2354C92.0588 83.3184 92.2264 83.4307 92.3664 83.5723C92.508 83.7122 92.6203 83.8799 92.7033 84.0752C92.788 84.2705 92.8303 84.4756 92.8303 84.6904C92.8303 84.9053 92.788 85.1104 92.7033 85.3057C92.6203 85.501 92.508 85.6694 92.3664 85.811C92.2264 85.951 92.0588 86.0633 91.8635 86.1479C91.6682 86.231 91.4631 86.2725 91.2482 86.2725C91.0334 86.2725 90.8283 86.231 90.633 86.1479C90.4377 86.0633 90.2692 85.951 90.1276 85.811C89.9877 85.6694 89.8754 85.501 89.7907 85.3057ZM89.6296 84.0093C89.5368 84.2257 89.4904 84.4528 89.4904 84.6904C89.4904 84.9281 89.5368 85.1559 89.6296 85.374C89.7224 85.5905 89.8469 85.7777 90.0031 85.9355C90.161 86.0918 90.3482 86.2163 90.5647 86.3091C90.7828 86.4019 91.0106 86.4482 91.2482 86.4482C91.4859 86.4482 91.7129 86.4019 91.9294 86.3091C92.1475 86.2163 92.3347 86.0918 92.4909 85.9355C92.6488 85.7777 92.7741 85.5905 92.8669 85.374C92.9597 85.1559 93.0061 84.9281 93.0061 84.6904C93.0061 84.4528 92.9597 84.2257 92.8669 84.0093C92.7741 83.7912 92.6488 83.604 92.4909 83.4478C92.3347 83.2899 92.1475 83.1646 91.9294 83.0718C91.7129 82.979 91.4859 82.9326 91.2482 82.9326C91.0106 82.9326 90.7828 82.979 90.5647 83.0718C90.3482 83.1646 90.161 83.2899 90.0031 83.4478C89.8469 83.604 89.7224 83.7912 89.6296 84.0093ZM89.4685 85.4424C89.3659 85.2031 89.3147 84.9525 89.3147 84.6904C89.3147 84.4284 89.3659 84.1785 89.4685 83.9409C89.571 83.7017 89.7085 83.4958 89.8811 83.3232C90.0536 83.1507 90.2587 83.0132 90.4963 82.9106C90.7356 82.8081 90.9862 82.7568 91.2482 82.7568C91.5103 82.7568 91.7601 82.8081 91.9978 82.9106C92.237 83.0132 92.4429 83.1507 92.6154 83.3232C92.788 83.4958 92.9255 83.7017 93.028 83.9409C93.1306 84.1785 93.1818 84.4284 93.1818 84.6904C93.1818 84.9525 93.1306 85.2031 93.028 85.4424C92.9255 85.68 92.788 85.8851 92.6154 86.0576C92.4429 86.2301 92.237 86.3677 91.9978 86.4702C91.7601 86.5728 91.5103 86.624 91.2482 86.624C90.9862 86.624 90.7356 86.5728 90.4963 86.4702C90.2587 86.3677 90.0536 86.2301 89.8811 86.0576C89.7085 85.8851 89.571 85.68 89.4685 85.4424ZM96.9904 82.9326H97.2053L94.9641 86.4482H94.7443L96.9904 82.9326ZM96.5559 82.9326H96.7707L94.5271 86.4482H94.3122L96.5559 82.9326ZM96.1213 82.9326H96.3386L94.0949 86.4482H93.8776L96.1213 82.9326ZM95.6867 82.9326H95.9065L93.6604 86.4482H93.4455L95.6867 82.9326ZM94.6125 84.4243L94.5051 84.5952L93.4455 82.9326H93.6604L94.6125 84.4243ZM95.3815 85.9673L95.489 85.7964L95.9065 86.4482H95.6867L95.3815 85.9673ZM94.8298 84.085L94.7224 84.2534L93.8801 82.9326H94.0949L94.8298 84.085ZM95.5988 85.6255L95.7063 85.457L96.3386 86.4482H96.1237L95.5988 85.6255ZM95.0471 83.7432L94.9397 83.9141L94.3122 82.9326H94.5295L95.0471 83.7432ZM95.8137 85.2861L95.9235 85.1152L96.7732 86.4482H96.5559L95.8137 85.2861ZM95.2644 83.4038L95.1545 83.5747L94.7443 82.9326H94.9641L95.2644 83.4038ZM96.031 84.9468L96.1408 84.7783L97.2053 86.4482H96.9904L96.031 84.9468Z" fill="#0B0B0B"/>
<defs>
<filter id="filter0_nn_5_596" x="13" y="13" width="144" height="144" filterUnits="userSpaceOnUse" color-interpolation-filters="sRGB">
<feFlood flood-opacity="0" result="BackgroundImageFix"/>
<feBlend mode="normal" in="SourceGraphic" in2="BackgroundImageFix" result="shape"/>
<feTurbulence type="fractalNoise" baseFrequency="0.068027213215827942 0.068027213215827942" stitchTiles="stitch" numOctaves="3" result="noise" seed="1847" />
<feColorMatrix in="noise" type="luminanceToAlpha" result="alphaNoise" />
<feComponentTransfer in="alphaNoise" result="coloredNoise1">
<feFuncA type="discrete" tableValues="0 0 0 0 0 0 0 0 0 0 1 1 1 1 1 1 1 1 1 1 1 1 1 1 1 1 1 1 1 1 1 1 1 1 1 1 1 1 1 1 0 0 0 0 0 0 0 0 0 0 0 0 0 0 0 0 0 0 0 0 0 0 0 0 0 0 0 0 0 0 0 0 0 0 0 0 0 0 0 0 0 0 0 0 0 0 0 0 0 0 0 0 0 0 0 0 0 0 0 0 "/>
</feComponentTransfer>
<feComposite operator="in" in2="shape" in="coloredNoise1" result="noise1Clipped" />
<feFlood flood-color="rgba(0, 0, 0, 0.13)" result="color1Flood" />
<feComposite operator="in" in2="noise1Clipped" in="color1Flood" result="color1" />
<feMerge result="effect1_noise_5_596">
<feMergeNode in="shape" />
<feMergeNode in="color1" />
</feMerge>
<feTurbulence type="fractalNoise" baseFrequency="0.28571429848670959 0.28571429848670959" stitchTiles="stitch" numOctaves="3" result="noise" seed="3668" />
<feColorMatrix in="noise" type="luminanceToAlpha" result="alphaNoise" />
<feComponentTransfer in="alphaNoise" result="coloredNoise1">
<feFuncA type="discrete" tableValues="1 1 1 1 1 1 1 1 1 1 1 1 1 1 1 1 1 1 1 1 1 1 1 1 1 1 1 1 1 1 1 1 1 1 1 1 1 1 1 1 1 1 1 1 1 1 1 1 1 1 1 0 0 0 0 0 0 0 0 0 0 0 0 0 0 0 0 0 0 0 0 0 0 0 0 0 0 0 0 0 0 0 0 0 0 0 0 0 0 0 0 0 0 0 0 0 0 0 0 0 "/>
</feComponentTransfer>
<feComposite operator="in" in2="effect1_noise_5_596" in="coloredNoise1" result="noise1Clipped" />
<feFlood flood-color="rgba(0, 0, 0, 0.07)" result="color1Flood" />
<feComposite operator="in" in2="noise1Clipped" in="color1Flood" result="color1" />
<feMerge result="effect2_noise_5_596">
<feMergeNode in="effect1_noise_5_596" />
<feMergeNode in="color1" />
</feMerge>
</filter>
</defs>
</svg>
