<svg width="110" height="110" viewBox="0 0 110 110" fill="none" xmlns="http://www.w3.org/2000/svg">
<rect width="110" height="110" fill="#D33232"/>
<g filter="url(#filter0_nn_5_498)">
<circle cx="54.5" cy="54.5" r="45.5" fill="#0B0B0B"/>
</g>
<circle cx="54.5001" cy="54.5001" r="20.6195" stroke="#1E1E1E" stroke-width="0.6"/>
<circle cx="54.5001" cy="54.4998" r="23.2345" stroke="#1E1E1E" stroke-width="0.6"/>
<circle opacity="0.99" cx="54.5" cy="54.5" r="25.8494" stroke="#1E1E1E" stroke-width="0.6"/>
<circle opacity="0.89" cx="54.5" cy="54.5002" r="28.4644" stroke="#1E1E1E" stroke-width="0.6"/>
<circle opacity="0.89" cx="54.4999" cy="54.4999" r="31.0793" stroke="#1E1E1E" stroke-width="0.6"/>
<circle opacity="0.89" cx="54.4999" cy="54.5001" r="33.6943" stroke="#1E1E1E" stroke-width="0.6"/>
<circle opacity="0.89" cx="54.5001" cy="54.4998" r="36.3092" stroke="#1E1E1E" stroke-width="0.6"/>
<circle opacity="0.89" cx="54.5" cy="54.5" r="38.9241" stroke="#1E1E1E" stroke-width="0.6"/>
<circle opacity="0.89" cx="54.5" cy="54.5002" r="41.5391" stroke="#1E1E1E" stroke-width="0.6"/>
<circle cx="54.3692" cy="54.6309" r="18.1739" fill="#D9D9D9"/>
<path d="M46.9337 55.3057V55.2002C47.002 55.2002 47.0592 55.1807 47.1051 55.1416C47.1519 55.1025 47.1754 55.0508 47.1754 54.9863V53.5142H47.2808V54.9863C47.2808 55.0791 47.2472 55.1558 47.1798 55.2163C47.1124 55.2759 47.0304 55.3057 46.9337 55.3057ZM46.9337 55.5166V55.4111C47.0606 55.4111 47.1676 55.3701 47.2545 55.2881C47.3424 55.2051 47.3863 55.1045 47.3863 54.9863V53.5142H47.4918V54.9863C47.4918 55.1328 47.4376 55.2578 47.3292 55.3613C47.2218 55.4648 47.0899 55.5166 46.9337 55.5166ZM46.9337 55.7275V55.6221C47.1192 55.6221 47.276 55.5601 47.4039 55.436C47.5328 55.312 47.5973 55.1621 47.5973 54.9863V53.5142H47.7027V54.9863C47.7027 55.1201 47.6685 55.2441 47.6002 55.3584C47.5328 55.4717 47.44 55.5615 47.3219 55.6279C47.2037 55.6943 47.0743 55.7275 46.9337 55.7275ZM46.9337 55.9385V55.833C47.0538 55.833 47.1676 55.8105 47.275 55.7656C47.3834 55.7207 47.4762 55.6606 47.5533 55.5854C47.6314 55.5093 47.6934 55.4189 47.7393 55.3145C47.7852 55.21 47.8082 55.1006 47.8082 54.9863V53.5142H47.9137V54.9863C47.9137 55.1152 47.8878 55.2383 47.836 55.3555C47.7852 55.4727 47.7159 55.5737 47.628 55.6587C47.5411 55.7446 47.4371 55.8125 47.316 55.8623C47.1949 55.9131 47.0675 55.9385 46.9337 55.9385ZM49.566 54.689V53.5142H49.6715V54.689C49.6715 54.8003 49.6285 54.896 49.5426 54.9761C49.4576 55.0562 49.3551 55.0962 49.235 55.0962C49.1148 55.0962 49.0118 55.0562 48.9259 54.9761C48.8409 54.896 48.7984 54.8003 48.7984 54.689V53.5142H48.9039V54.689C48.9039 54.772 48.9361 54.8433 49.0006 54.9028C49.066 54.9614 49.1441 54.9907 49.235 54.9907C49.3258 54.9907 49.4034 54.9614 49.4679 54.9028C49.5333 54.8433 49.566 54.772 49.566 54.689ZM49.7769 54.689V53.5142H49.8824V54.689C49.8824 54.8599 49.8189 55.0059 49.692 55.127C49.565 55.2471 49.4127 55.3071 49.235 55.3071C49.0572 55.3071 48.9049 55.2471 48.7779 55.127C48.651 55.0059 48.5875 54.8599 48.5875 54.689V53.5142H48.693V54.689C48.693 54.8306 48.7457 54.9517 48.8512 55.0522C48.9576 55.1519 49.0855 55.2017 49.235 55.2017C49.3834 55.2017 49.5108 55.1519 49.6173 55.0522C49.7237 54.9517 49.7769 54.8306 49.7769 54.689ZM49.9879 54.689V53.5142H50.0933V54.689C50.0933 54.8384 50.0548 54.9771 49.9776 55.105C49.9005 55.2319 49.796 55.3325 49.6641 55.4067C49.5323 55.481 49.3892 55.5181 49.235 55.5181C49.0807 55.5181 48.9376 55.481 48.8058 55.4067C48.6739 55.3325 48.5694 55.2319 48.4923 55.105C48.4151 54.9771 48.3766 54.8384 48.3766 54.689V53.5142H48.482V54.689C48.482 54.8188 48.5157 54.9395 48.5831 55.0508C48.6505 55.1621 48.7418 55.2505 48.857 55.3159C48.9732 55.3804 49.0992 55.4126 49.235 55.4126C49.3707 55.4126 49.4962 55.3804 49.6114 55.3159C49.7276 55.2505 49.8194 55.1621 49.8868 55.0508C49.9542 54.9395 49.9879 54.8188 49.9879 54.689ZM50.1988 54.689V53.5142H50.3043V54.689C50.3043 54.8296 50.276 54.9644 50.2193 55.0933C50.1627 55.2212 50.0865 55.3315 49.9908 55.4243C49.8951 55.5171 49.7813 55.5908 49.6495 55.6455C49.5177 55.7012 49.3795 55.729 49.235 55.729C49.0904 55.729 48.9522 55.7012 48.8204 55.6455C48.6886 55.5908 48.5748 55.5171 48.4791 55.4243C48.3834 55.3315 48.3072 55.2212 48.2506 55.0933C48.1939 54.9644 48.1656 54.8296 48.1656 54.689V53.5142H48.2711V54.689C48.2711 54.8569 48.3141 55.0127 48.4 55.1562C48.4869 55.2998 48.6041 55.4136 48.7516 55.4976C48.9 55.5815 49.0611 55.6235 49.235 55.6235C49.4088 55.6235 49.5694 55.5815 49.7169 55.4976C49.8653 55.4136 49.9825 55.2998 50.0684 55.1562C50.1554 55.0127 50.1988 54.8569 50.1988 54.689ZM52.7857 53.5142L52.1983 54.5776L52.7769 55.6235H52.6598L52.0811 54.5776L52.6685 53.5142H52.7857ZM52.5499 53.5142L51.9625 54.5776L52.5411 55.6235H52.4239L51.8453 54.5776L52.4327 53.5142H52.5499ZM52.3141 53.5142L51.7266 54.5776L52.3053 55.6235H52.1881L51.6095 54.5776L52.1969 53.5142H52.3141ZM52.0782 53.5142L51.4893 54.5776L52.0694 55.6235H51.9522L51.3722 54.5776L51.961 53.5142H52.0782ZM51.2022 53.5142V55.6235H51.3077V53.5142H51.2022ZM50.9913 53.5142V55.6235H51.0968V53.5142H50.9913ZM50.7804 53.5142V55.6235H50.8858V53.5142H50.7804ZM50.5694 53.5142V55.6235H50.6749V53.5142H50.5694ZM53.502 55.6235H53.3966V53.5142H53.502V55.6235ZM53.2911 55.6235H53.1856V53.5142H53.2911V55.6235ZM53.0802 55.6235H52.9747V53.5142H53.0802V55.6235ZM53.713 55.0962H54.7223V55.2017H53.713V55.3071H54.7223V55.4126H53.713V55.5181H54.7223V55.6235H53.6075V53.5142H54.7223V53.6196H53.713V53.7251H54.7223V53.8306H53.713V53.936H54.7223V54.0415H53.713V54.3037H54.6637V54.4092H53.713V54.5146H54.6637V54.6201H53.713V54.7256H54.6637V54.8311H53.713V55.0962ZM56.628 54.5571C56.627 54.5571 56.6266 54.5576 56.6266 54.5586C56.6734 54.6064 56.7125 54.6655 56.7437 54.7358C56.775 54.8062 56.7906 54.8774 56.7906 54.9497C56.7906 55.1069 56.7364 55.2393 56.628 55.3467C56.5206 55.4531 56.3917 55.5063 56.2413 55.5063H55.5748V55.6118H56.2413C56.3604 55.6118 56.4688 55.5859 56.5665 55.5342C56.6651 55.4824 56.7447 55.4058 56.8053 55.3042C56.8658 55.2017 56.8961 55.0835 56.8961 54.9497C56.8961 54.8101 56.8541 54.6821 56.7701 54.5659C56.8541 54.4536 56.8961 54.3193 56.8961 54.1631C56.8961 54.0488 56.8663 53.9419 56.8067 53.8423C56.7472 53.7417 56.6666 53.6621 56.565 53.6035C56.4644 53.5439 56.3565 53.5142 56.2413 53.5142H54.9757V55.6235H55.0811V53.6196H56.2413C56.3897 53.6196 56.5182 53.6738 56.6266 53.7822C56.7359 53.8896 56.7906 54.0166 56.7906 54.1631C56.7906 54.3174 56.7354 54.4482 56.6251 54.5557L56.628 54.5571ZM56.2413 55.0845C56.2774 55.0845 56.3077 55.0728 56.3321 55.0493C56.3565 55.0259 56.3687 54.9927 56.3687 54.9497C56.3687 54.9146 56.3556 54.8833 56.3292 54.856C56.3038 54.8286 56.2745 54.8149 56.2413 54.8149H55.5733V54.7095H56.2413C56.3028 54.7095 56.357 54.7339 56.4039 54.7827C56.4508 54.8306 56.4742 54.8862 56.4742 54.9497C56.4742 55.0229 56.4513 55.0815 56.4054 55.1255C56.3604 55.1685 56.3058 55.1899 56.2413 55.1899H55.5748V55.0845H56.2413ZM56.2413 55.2954C56.3341 55.2954 56.4137 55.2632 56.4801 55.1987C56.5465 55.1343 56.5797 55.0513 56.5797 54.9497C56.5797 54.8579 56.5455 54.7773 56.4771 54.708C56.4098 54.6387 56.3311 54.604 56.2413 54.604H55.919H55.5748V54.4985H55.919H56.2413C56.3341 54.4985 56.4137 54.4673 56.4801 54.4048C56.5465 54.3413 56.5797 54.2607 56.5797 54.1631C56.5797 54.0752 56.5455 53.998 56.4771 53.9316C56.4098 53.8643 56.3311 53.8306 56.2413 53.8306H55.2921V55.6235H55.1866V53.7251H56.2413C56.3604 53.7251 56.464 53.769 56.5518 53.8569C56.6407 53.9438 56.6851 54.0459 56.6851 54.1631C56.6851 54.249 56.6632 54.3267 56.6192 54.396C56.5763 54.4644 56.5191 54.5171 56.4478 54.5542C56.5191 54.5933 56.5763 54.6489 56.6192 54.7212C56.6632 54.7925 56.6851 54.8687 56.6851 54.9497C56.6851 55.0776 56.6412 55.1851 56.5533 55.272C56.4664 55.3579 56.3624 55.4009 56.2413 55.4009H55.5748V55.2954H56.2413ZM56.2413 54.2876C56.2774 54.2876 56.3077 54.2769 56.3321 54.2554C56.3565 54.2339 56.3687 54.2031 56.3687 54.1631C56.3687 54.1318 56.3556 54.104 56.3292 54.0796C56.3038 54.0542 56.2745 54.0415 56.2413 54.0415H55.503V55.6235H55.3975V53.936H56.2413C56.3028 53.936 56.357 53.959 56.4039 54.0049C56.4508 54.0508 56.4742 54.1035 56.4742 54.1631C56.4742 54.2334 56.4517 54.2896 56.4068 54.3315C56.3619 54.3726 56.3067 54.3931 56.2413 54.3931H55.5748V54.2876H56.2413ZM57.9434 54.2715C57.8614 54.3535 57.8204 54.4526 57.8204 54.5688C57.8204 54.6851 57.8614 54.7847 57.9434 54.8677C58.0265 54.9497 58.1261 54.9907 58.2423 54.9907C58.3585 54.9907 58.4576 54.9497 58.5396 54.8677C58.6226 54.7847 58.6641 54.6851 58.6641 54.5688C58.6641 54.4526 58.6226 54.3535 58.5396 54.2715C58.4576 54.1885 58.3585 54.147 58.2423 54.147C58.1261 54.147 58.0265 54.1885 57.9434 54.2715ZM57.8687 54.9424C57.7662 54.8389 57.7149 54.7144 57.7149 54.5688C57.7149 54.4233 57.7662 54.2993 57.8687 54.1968C57.9723 54.0933 58.0968 54.0415 58.2423 54.0415C58.3878 54.0415 58.5118 54.0933 58.6143 54.1968C58.7179 54.2993 58.7696 54.4233 58.7696 54.5688C58.7696 54.7144 58.7179 54.8389 58.6143 54.9424C58.5118 55.0449 58.3878 55.0962 58.2423 55.0962C58.0968 55.0962 57.9723 55.0449 57.8687 54.9424ZM57.794 54.1221C57.671 54.2461 57.6095 54.395 57.6095 54.5688C57.6095 54.7427 57.671 54.8916 57.794 55.0156C57.9181 55.1396 58.0675 55.2017 58.2423 55.2017C58.4171 55.2017 58.566 55.1396 58.6891 55.0156C58.8131 54.8916 58.8751 54.7427 58.8751 54.5688C58.8751 54.395 58.8131 54.2461 58.6891 54.1221C58.566 53.998 58.4171 53.936 58.2423 53.936C58.0675 53.936 57.9181 53.998 57.794 54.1221ZM57.6021 54.9395C57.5367 54.8262 57.504 54.7026 57.504 54.5688C57.504 54.4351 57.5367 54.3115 57.6021 54.1982C57.6685 54.085 57.7584 53.9956 57.8717 53.9302C57.985 53.8638 58.1085 53.8306 58.2423 53.8306C58.3761 53.8306 58.4996 53.8638 58.6129 53.9302C58.7262 53.9956 58.8155 54.085 58.8809 54.1982C58.9474 54.3115 58.9806 54.4351 58.9806 54.5688C58.9806 54.7026 58.9474 54.8262 58.8809 54.9395C58.8155 55.0527 58.7262 55.1426 58.6129 55.209C58.4996 55.2744 58.3761 55.3071 58.2423 55.3071C58.1085 55.3071 57.985 55.2744 57.8717 55.209C57.7584 55.1426 57.6685 55.0527 57.6021 54.9395ZM57.4644 54.2422C57.4205 54.3457 57.3985 54.4546 57.3985 54.5688C57.3985 54.6831 57.4205 54.7925 57.4644 54.897C57.5094 55.0005 57.5694 55.0903 57.6446 55.1665C57.7208 55.2417 57.8106 55.3018 57.9141 55.3467C58.0186 55.3906 58.128 55.4126 58.2423 55.4126C58.3565 55.4126 58.4654 55.3906 58.5689 55.3467C58.6734 55.3018 58.7633 55.2417 58.8385 55.1665C58.9146 55.0903 58.9747 55.0005 59.0186 54.897C59.0636 54.7925 59.086 54.6831 59.086 54.5688C59.086 54.4546 59.0636 54.3457 59.0186 54.2422C58.9747 54.1377 58.9146 54.0479 58.8385 53.9727C58.7633 53.8965 58.6734 53.8364 58.5689 53.7925C58.4654 53.7476 58.3565 53.7251 58.2423 53.7251C58.128 53.7251 58.0186 53.7476 57.9141 53.7925C57.8106 53.8364 57.7208 53.8965 57.6446 53.9727C57.5694 54.0479 57.5094 54.1377 57.4644 54.2422ZM57.3678 54.938C57.318 54.8208 57.2931 54.6978 57.2931 54.5688C57.2931 54.4399 57.318 54.3169 57.3678 54.1997C57.4185 54.0825 57.4859 53.9819 57.5699 53.8979C57.6549 53.813 57.7559 53.7456 57.8731 53.6958C57.9903 53.645 58.1134 53.6196 58.2423 53.6196C58.3712 53.6196 58.4942 53.645 58.6114 53.6958C58.7286 53.7456 58.8292 53.813 58.9132 53.8979C58.9981 53.9819 59.0655 54.0825 59.1153 54.1997C59.1661 54.3169 59.1915 54.4399 59.1915 54.5688C59.1915 54.6978 59.1661 54.8208 59.1153 54.938C59.0655 55.0552 58.9981 55.1562 58.9132 55.2412C58.8292 55.3252 58.7286 55.3926 58.6114 55.4434C58.4942 55.4932 58.3712 55.5181 58.2423 55.5181C58.1134 55.5181 57.9903 55.4932 57.8731 55.4434C57.7559 55.3926 57.6549 55.3252 57.5699 55.2412C57.4859 55.1562 57.4185 55.0552 57.3678 54.938ZM57.2711 54.1602C57.2154 54.29 57.1876 54.4263 57.1876 54.5688C57.1876 54.7114 57.2154 54.8481 57.2711 54.979C57.3267 55.1089 57.4015 55.2212 57.4952 55.3159C57.5899 55.4097 57.7022 55.4844 57.8321 55.54C57.963 55.5957 58.0997 55.6235 58.2423 55.6235C58.3849 55.6235 58.5211 55.5957 58.651 55.54C58.7818 55.4844 58.8941 55.4097 58.9879 55.3159C59.0826 55.2212 59.1578 55.1089 59.2135 54.979C59.2691 54.8481 59.297 54.7114 59.297 54.5688C59.297 54.4263 59.2691 54.29 59.2135 54.1602C59.1578 54.0293 59.0826 53.917 58.9879 53.8232C58.8941 53.7285 58.7818 53.6533 58.651 53.5977C58.5211 53.542 58.3849 53.5142 58.2423 53.5142C58.0997 53.5142 57.963 53.542 57.8321 53.5977C57.7022 53.6533 57.5899 53.7285 57.4952 53.8232C57.4015 53.917 57.3267 54.0293 57.2711 54.1602ZM57.1744 55.02C57.1129 54.8765 57.0821 54.7261 57.0821 54.5688C57.0821 54.4116 57.1129 54.2617 57.1744 54.1191C57.2359 53.9756 57.3184 53.8521 57.422 53.7485C57.5255 53.645 57.6485 53.5625 57.7911 53.501C57.9347 53.4395 58.085 53.4087 58.2423 53.4087C58.3995 53.4087 58.5494 53.4395 58.692 53.501C58.8355 53.5625 58.9591 53.645 59.0626 53.7485C59.1661 53.8521 59.2486 53.9756 59.3101 54.1191C59.3717 54.2617 59.4024 54.4116 59.4024 54.5688C59.4024 54.7261 59.3717 54.8765 59.3101 55.02C59.2486 55.1626 59.1661 55.2856 59.0626 55.3892C58.9591 55.4927 58.8355 55.5752 58.692 55.6367C58.5494 55.6982 58.3995 55.729 58.2423 55.729C58.085 55.729 57.9347 55.6982 57.7911 55.6367C57.6485 55.5752 57.5255 55.4927 57.422 55.3892C57.3184 55.2856 57.2359 55.1626 57.1744 55.02ZM61.6876 53.5142H61.8165L60.4718 55.6235H60.3399L61.6876 53.5142ZM61.4268 53.5142H61.5558L60.2096 55.6235H60.0807L61.4268 53.5142ZM61.1661 53.5142H61.2965L59.9503 55.6235H59.8199L61.1661 53.5142ZM60.9054 53.5142H61.0372L59.6895 55.6235H59.5606L60.9054 53.5142ZM60.2608 54.4092L60.1964 54.5117L59.5606 53.5142H59.6895L60.2608 54.4092ZM60.7223 55.335L60.7867 55.2324L61.0372 55.6235H60.9054L60.7223 55.335ZM60.3912 54.2056L60.3267 54.3066L59.8214 53.5142H59.9503L60.3912 54.2056ZM60.8526 55.1299L60.9171 55.0288L61.2965 55.6235H61.1676L60.8526 55.1299ZM60.5216 54.0005L60.4571 54.103L60.0807 53.5142H60.211L60.5216 54.0005ZM60.9815 54.9263L61.0475 54.8237L61.5572 55.6235H61.4268L60.9815 54.9263ZM60.6519 53.7969L60.586 53.8994L60.3399 53.5142H60.4718L60.6519 53.7969ZM61.1119 54.7227L61.1778 54.6216L61.8165 55.6235H61.6876L61.1119 54.7227Z" fill="#0B0B0B"/>
<defs>
<filter id="filter0_nn_5_498" x="9" y="9" width="91" height="91" filterUnits="userSpaceOnUse" color-interpolation-filters="sRGB">
<feFlood flood-opacity="0" result="BackgroundImageFix"/>
<feBlend mode="normal" in="SourceGraphic" in2="BackgroundImageFix" result="shape"/>
<feTurbulence type="fractalNoise" baseFrequency="0.068027213215827942 0.068027213215827942" stitchTiles="stitch" numOctaves="3" result="noise" seed="1847" />
<feColorMatrix in="noise" type="luminanceToAlpha" result="alphaNoise" />
<feComponentTransfer in="alphaNoise" result="coloredNoise1">
<feFuncA type="discrete" tableValues="0 0 0 0 0 0 0 0 0 0 1 1 1 1 1 1 1 1 1 1 1 1 1 1 1 1 1 1 1 1 1 1 1 1 1 1 1 1 1 1 0 0 0 0 0 0 0 0 0 0 0 0 0 0 0 0 0 0 0 0 0 0 0 0 0 0 0 0 0 0 0 0 0 0 0 0 0 0 0 0 0 0 0 0 0 0 0 0 0 0 0 0 0 0 0 0 0 0 0 0 "/>
</feComponentTransfer>
<feComposite operator="in" in2="shape" in="coloredNoise1" result="noise1Clipped" />
<feFlood flood-color="rgba(0, 0, 0, 0.13)" result="color1Flood" />
<feComposite operator="in" in2="noise1Clipped" in="color1Flood" result="color1" />
<feMerge result="effect1_noise_5_498">
<feMergeNode in="shape" />
<feMergeNode in="color1" />
</feMerge>
<feTurbulence type="fractalNoise" baseFrequency="0.28571429848670959 0.28571429848670959" stitchTiles="stitch" numOctaves="3" result="noise" seed="3668" />
<feColorMatrix in="noise" type="luminanceToAlpha" result="alphaNoise" />
<feComponentTransfer in="alphaNoise" result="coloredNoise1">
<feFuncA type="discrete" tableValues="1 1 1 1 1 1 1 1 1 1 1 1 1 1 1 1 1 1 1 1 1 1 1 1 1 1 1 1 1 1 1 1 1 1 1 1 1 1 1 1 1 1 1 1 1 1 1 1 1 1 1 0 0 0 0 0 0 0 0 0 0 0 0 0 0 0 0 0 0 0 0 0 0 0 0 0 0 0 0 0 0 0 0 0 0 0 0 0 0 0 0 0 0 0 0 0 0 0 0 0 "/>
</feComponentTransfer>
<feComposite operator="in" in2="effect1_noise_5_498" in="coloredNoise1" result="noise1Clipped" />
<feFlood flood-color="rgba(0, 0, 0, 0.07)" result="color1Flood" />
<feComposite operator="in" in2="noise1Clipped" in="color1Flood" result="color1" />
<feMerge result="effect2_noise_5_498">
<feMergeNode in="effect1_noise_5_498" />
<feMergeNode in="color1" />
</feMerge>
</filter>
</defs>
</svg>
