<svg width="400" height="400" viewBox="0 0 400 400" fill="none" xmlns="http://www.w3.org/2000/svg">
<g filter="url(#filter0_nn_5_684)">
<circle cx="200" cy="200" r="182" fill="#0B0B0B"/>
</g>
<circle cx="200" cy="200" r="82.6782" stroke="#1E1E1E" stroke-width="2"/>
<circle cx="200" cy="200" r="93.1379" stroke="#1E1E1E" stroke-width="2"/>
<circle opacity="0.99" cx="200" cy="200" r="103.598" stroke="#1E1E1E" stroke-width="2"/>
<circle opacity="0.89" cx="200" cy="200" r="114.057" stroke="#1E1E1E" stroke-width="2"/>
<circle opacity="0.89" cx="200" cy="200" r="124.517" stroke="#1E1E1E" stroke-width="2"/>
<circle opacity="0.89" cx="200" cy="200" r="134.977" stroke="#1E1E1E" stroke-width="2"/>
<circle opacity="0.89" cx="200" cy="200" r="145.437" stroke="#1E1E1E" stroke-width="2"/>
<circle opacity="0.89" cx="200" cy="200" r="155.897" stroke="#1E1E1E" stroke-width="2"/>
<circle opacity="0.89" cx="200" cy="200" r="166.356" stroke="#1E1E1E" stroke-width="2"/>
<circle cx="199.477" cy="200.523" r="72.6954" fill="#D33232"/>
<path d="M164.778 204.011V203.519C165.097 203.519 165.363 203.427 165.577 203.245C165.796 203.063 165.906 202.821 165.906 202.521V195.65H166.398V202.521C166.398 202.953 166.241 203.311 165.926 203.594C165.612 203.872 165.229 204.011 164.778 204.011ZM164.778 204.995V204.503C165.37 204.503 165.869 204.312 166.275 203.929C166.685 203.541 166.89 203.072 166.89 202.521V195.65H167.382V202.521C167.382 203.204 167.129 203.787 166.623 204.271C166.122 204.754 165.507 204.995 164.778 204.995ZM164.778 205.979V205.487C165.644 205.487 166.375 205.198 166.972 204.619C167.574 204.04 167.874 203.341 167.874 202.521V195.65H168.367V202.521C168.367 203.145 168.207 203.724 167.888 204.257C167.574 204.785 167.141 205.205 166.589 205.515C166.038 205.825 165.434 205.979 164.778 205.979ZM164.778 206.964V206.472C165.338 206.472 165.869 206.367 166.37 206.157C166.876 205.948 167.309 205.667 167.669 205.316C168.034 204.961 168.323 204.539 168.537 204.052C168.752 203.564 168.859 203.054 168.859 202.521V195.65H169.351V202.521C169.351 203.122 169.23 203.696 168.989 204.243C168.752 204.79 168.428 205.262 168.018 205.658C167.612 206.059 167.127 206.376 166.562 206.608C165.997 206.845 165.402 206.964 164.778 206.964ZM177.062 201.133V195.65H177.554V201.133C177.554 201.652 177.354 202.099 176.952 202.473C176.556 202.846 176.077 203.033 175.517 203.033C174.956 203.033 174.476 202.846 174.075 202.473C173.678 202.099 173.48 201.652 173.48 201.133V195.65H173.972V201.133C173.972 201.52 174.122 201.853 174.423 202.131C174.729 202.404 175.093 202.541 175.517 202.541C175.941 202.541 176.303 202.404 176.604 202.131C176.909 201.853 177.062 201.52 177.062 201.133ZM178.046 201.133V195.65H178.538V201.133C178.538 201.93 178.242 202.612 177.65 203.177C177.057 203.737 176.346 204.018 175.517 204.018C174.688 204.018 173.977 203.737 173.384 203.177C172.792 202.612 172.495 201.93 172.495 201.133V195.65H172.988V201.133C172.988 201.794 173.234 202.359 173.726 202.828C174.223 203.293 174.82 203.525 175.517 203.525C176.21 203.525 176.804 203.293 177.301 202.828C177.798 202.359 178.046 201.794 178.046 201.133ZM179.031 201.133V195.65H179.523V201.133C179.523 201.83 179.343 202.477 178.983 203.074C178.623 203.667 178.135 204.136 177.52 204.482C176.905 204.829 176.237 205.002 175.517 205.002C174.797 205.002 174.129 204.829 173.514 204.482C172.899 204.136 172.411 203.667 172.051 203.074C171.691 202.477 171.511 201.83 171.511 201.133V195.65H172.003V201.133C172.003 201.739 172.161 202.302 172.475 202.821C172.789 203.341 173.216 203.753 173.753 204.059C174.296 204.359 174.883 204.51 175.517 204.51C176.15 204.51 176.736 204.359 177.274 204.059C177.816 203.753 178.244 203.341 178.559 202.821C178.873 202.302 179.031 201.739 179.031 201.133ZM180.015 201.133V195.65H180.507V201.133C180.507 201.789 180.375 202.418 180.111 203.02C179.846 203.617 179.491 204.132 179.044 204.564C178.598 204.997 178.067 205.341 177.452 205.597C176.836 205.856 176.191 205.986 175.517 205.986C174.842 205.986 174.198 205.856 173.582 205.597C172.967 205.341 172.436 204.997 171.99 204.564C171.543 204.132 171.188 203.617 170.923 203.02C170.659 202.418 170.527 201.789 170.527 201.133V195.65H171.019V201.133C171.019 201.917 171.219 202.644 171.62 203.313C172.026 203.983 172.573 204.514 173.261 204.906C173.954 205.298 174.706 205.494 175.517 205.494C176.328 205.494 177.078 205.298 177.766 204.906C178.459 204.514 179.006 203.983 179.407 203.313C179.812 202.644 180.015 201.917 180.015 201.133ZM192.087 195.65L189.346 200.613L192.046 205.494H191.499L188.799 200.613L191.54 195.65H192.087ZM190.987 195.65L188.245 200.613L190.946 205.494H190.399L187.699 200.613L190.44 195.65H190.987ZM189.886 195.65L187.145 200.613L189.845 205.494H189.298L186.598 200.613L189.339 195.65H189.886ZM188.786 195.65L186.037 200.613L188.744 205.494H188.198L185.491 200.613L188.239 195.65H188.786ZM184.698 195.65V205.494H185.19V195.65H184.698ZM183.713 195.65V205.494H184.205V195.65H183.713ZM182.729 195.65V205.494H183.221V195.65H182.729ZM181.744 195.65V205.494H182.237V195.65H181.744ZM195.43 205.494H194.938V195.65H195.43V205.494ZM194.446 205.494H193.953V195.65H194.446V205.494ZM193.461 205.494H192.969V195.65H193.461V205.494ZM196.414 203.033H201.124V203.525H196.414V204.018H201.124V204.51H196.414V205.002H201.124V205.494H195.922V195.65H201.124V196.143H196.414V196.635H201.124V197.127H196.414V197.619H201.124V198.111H196.414V199.335H200.851V199.827H196.414V200.319H200.851V200.812H196.414V201.304H200.851V201.796H196.414V203.033ZM210.018 200.518C210.013 200.518 210.011 200.52 210.011 200.524C210.23 200.748 210.412 201.023 210.558 201.352C210.704 201.68 210.777 202.012 210.777 202.35C210.777 203.083 210.524 203.701 210.018 204.202C209.517 204.699 208.915 204.947 208.213 204.947H205.103V205.439H208.213C208.769 205.439 209.275 205.319 209.731 205.077C210.191 204.836 210.563 204.478 210.845 204.004C211.128 203.525 211.269 202.974 211.269 202.35C211.269 201.698 211.073 201.101 210.681 200.559C211.073 200.035 211.269 199.408 211.269 198.679C211.269 198.146 211.13 197.646 210.852 197.182C210.574 196.712 210.198 196.341 209.724 196.067C209.255 195.789 208.751 195.65 208.213 195.65H202.307V205.494H202.799V196.143H208.213C208.906 196.143 209.505 196.396 210.011 196.901C210.522 197.403 210.777 197.995 210.777 198.679C210.777 199.399 210.519 200.009 210.004 200.511L210.018 200.518ZM208.213 202.979C208.382 202.979 208.523 202.924 208.637 202.814C208.751 202.705 208.808 202.55 208.808 202.35C208.808 202.186 208.746 202.04 208.623 201.912C208.505 201.785 208.368 201.721 208.213 201.721H205.096V201.229H208.213C208.5 201.229 208.753 201.342 208.972 201.57C209.191 201.794 209.3 202.053 209.3 202.35C209.3 202.691 209.193 202.965 208.979 203.17C208.769 203.37 208.514 203.471 208.213 203.471H205.103V202.979H208.213ZM208.213 203.963C208.646 203.963 209.018 203.812 209.327 203.512C209.637 203.211 209.792 202.824 209.792 202.35C209.792 201.921 209.633 201.545 209.314 201.222C208.999 200.898 208.633 200.736 208.213 200.736H206.709H205.103V200.244H206.709H208.213C208.646 200.244 209.018 200.098 209.327 199.807C209.637 199.51 209.792 199.134 209.792 198.679C209.792 198.269 209.633 197.909 209.314 197.599C208.999 197.284 208.633 197.127 208.213 197.127H203.784V205.494H203.291V196.635H208.213C208.769 196.635 209.252 196.84 209.662 197.25C210.077 197.656 210.285 198.132 210.285 198.679C210.285 199.08 210.182 199.442 209.977 199.766C209.776 200.085 209.51 200.331 209.177 200.504C209.51 200.686 209.776 200.946 209.977 201.283C210.182 201.616 210.285 201.971 210.285 202.35C210.285 202.947 210.079 203.448 209.669 203.854C209.264 204.255 208.778 204.455 208.213 204.455H205.103V203.963H208.213ZM208.213 199.26C208.382 199.26 208.523 199.21 208.637 199.109C208.751 199.009 208.808 198.866 208.808 198.679C208.808 198.533 208.746 198.403 208.623 198.289C208.505 198.171 208.368 198.111 208.213 198.111H204.768V205.494H204.276V197.619H208.213C208.5 197.619 208.753 197.726 208.972 197.94C209.191 198.155 209.3 198.401 209.3 198.679C209.3 199.007 209.195 199.269 208.986 199.465C208.776 199.656 208.519 199.752 208.213 199.752H205.103V199.26H208.213ZM216.157 199.185C215.774 199.567 215.582 200.03 215.582 200.572C215.582 201.115 215.774 201.579 216.157 201.967C216.544 202.35 217.009 202.541 217.551 202.541C218.093 202.541 218.556 202.35 218.939 201.967C219.326 201.579 219.52 201.115 219.52 200.572C219.52 200.03 219.326 199.567 218.939 199.185C218.556 198.797 218.093 198.604 217.551 198.604C217.009 198.604 216.544 198.797 216.157 199.185ZM215.808 202.315C215.329 201.832 215.09 201.251 215.09 200.572C215.09 199.893 215.329 199.314 215.808 198.836C216.291 198.353 216.872 198.111 217.551 198.111C218.23 198.111 218.809 198.353 219.287 198.836C219.771 199.314 220.012 199.893 220.012 200.572C220.012 201.251 219.771 201.832 219.287 202.315C218.809 202.794 218.23 203.033 217.551 203.033C216.872 203.033 216.291 202.794 215.808 202.315ZM215.459 198.487C214.885 199.066 214.598 199.761 214.598 200.572C214.598 201.383 214.885 202.078 215.459 202.657C216.038 203.236 216.735 203.525 217.551 203.525C218.367 203.525 219.062 203.236 219.636 202.657C220.215 202.078 220.504 201.383 220.504 200.572C220.504 199.761 220.215 199.066 219.636 198.487C219.062 197.909 218.367 197.619 217.551 197.619C216.735 197.619 216.038 197.909 215.459 198.487ZM214.564 202.302C214.258 201.773 214.106 201.197 214.106 200.572C214.106 199.948 214.258 199.371 214.564 198.843C214.874 198.314 215.293 197.897 215.822 197.592C216.35 197.282 216.927 197.127 217.551 197.127C218.175 197.127 218.752 197.282 219.281 197.592C219.809 197.897 220.226 198.314 220.532 198.843C220.841 199.371 220.996 199.948 220.996 200.572C220.996 201.197 220.841 201.773 220.532 202.302C220.226 202.83 219.809 203.25 219.281 203.56C218.752 203.865 218.175 204.018 217.551 204.018C216.927 204.018 216.35 203.865 215.822 203.56C215.293 203.25 214.874 202.83 214.564 202.302ZM213.921 199.048C213.716 199.531 213.614 200.039 213.614 200.572C213.614 201.105 213.716 201.616 213.921 202.104C214.131 202.587 214.411 203.006 214.762 203.361C215.118 203.712 215.537 203.993 216.02 204.202C216.508 204.407 217.018 204.51 217.551 204.51C218.084 204.51 218.592 204.407 219.076 204.202C219.563 203.993 219.982 203.712 220.333 203.361C220.689 203.006 220.969 202.587 221.174 202.104C221.384 201.616 221.489 201.105 221.489 200.572C221.489 200.039 221.384 199.531 221.174 199.048C220.969 198.56 220.689 198.141 220.333 197.79C219.982 197.435 219.563 197.154 219.076 196.949C218.592 196.74 218.084 196.635 217.551 196.635C217.018 196.635 216.508 196.74 216.02 196.949C215.537 197.154 215.118 197.435 214.762 197.79C214.411 198.141 214.131 198.56 213.921 199.048ZM213.47 202.295C213.238 201.748 213.121 201.174 213.121 200.572C213.121 199.971 213.238 199.396 213.47 198.85C213.707 198.303 214.022 197.833 214.413 197.441C214.81 197.045 215.282 196.73 215.828 196.498C216.375 196.261 216.95 196.143 217.551 196.143C218.153 196.143 218.727 196.261 219.274 196.498C219.821 196.73 220.29 197.045 220.682 197.441C221.078 197.833 221.393 198.303 221.625 198.85C221.862 199.396 221.981 199.971 221.981 200.572C221.981 201.174 221.862 201.748 221.625 202.295C221.393 202.842 221.078 203.313 220.682 203.71C220.29 204.102 219.821 204.416 219.274 204.653C218.727 204.886 218.153 205.002 217.551 205.002C216.95 205.002 216.375 204.886 215.828 204.653C215.282 204.416 214.81 204.102 214.413 203.71C214.022 203.313 213.707 202.842 213.47 202.295ZM213.019 198.665C212.759 199.271 212.629 199.907 212.629 200.572C212.629 201.238 212.759 201.876 213.019 202.486C213.279 203.092 213.627 203.617 214.065 204.059C214.507 204.496 215.031 204.845 215.637 205.104C216.248 205.364 216.886 205.494 217.551 205.494C218.216 205.494 218.852 205.364 219.458 205.104C220.069 204.845 220.593 204.496 221.031 204.059C221.473 203.617 221.824 203.092 222.083 202.486C222.343 201.876 222.473 201.238 222.473 200.572C222.473 199.907 222.343 199.271 222.083 198.665C221.824 198.054 221.473 197.53 221.031 197.093C220.593 196.651 220.069 196.3 219.458 196.04C218.852 195.78 218.216 195.65 217.551 195.65C216.886 195.65 216.248 195.78 215.637 196.04C215.031 196.3 214.507 196.651 214.065 197.093C213.627 197.53 213.279 198.054 213.019 198.665ZM212.568 202.678C212.281 202.008 212.137 201.306 212.137 200.572C212.137 199.839 212.281 199.139 212.568 198.474C212.855 197.804 213.24 197.227 213.723 196.744C214.206 196.261 214.78 195.876 215.446 195.589C216.116 195.302 216.817 195.158 217.551 195.158C218.285 195.158 218.984 195.302 219.65 195.589C220.32 195.876 220.896 196.261 221.379 196.744C221.862 197.227 222.247 197.804 222.535 198.474C222.822 199.139 222.965 199.839 222.965 200.572C222.965 201.306 222.822 202.008 222.535 202.678C222.247 203.343 221.862 203.917 221.379 204.4C220.896 204.883 220.32 205.269 219.65 205.556C218.984 205.843 218.285 205.986 217.551 205.986C216.817 205.986 216.116 205.843 215.446 205.556C214.78 205.269 214.206 204.883 213.723 204.4C213.24 203.917 212.855 203.343 212.568 202.678ZM233.629 195.65H234.231L227.955 205.494H227.34L233.629 195.65ZM232.412 195.65H233.014L226.732 205.494H226.13L232.412 195.65ZM231.196 195.65H231.804L225.522 205.494H224.913L231.196 195.65ZM229.979 195.65H230.594L224.305 205.494H223.703L229.979 195.65ZM226.971 199.827L226.67 200.306L223.703 195.65H224.305L226.971 199.827ZM229.124 204.147L229.425 203.669L230.594 205.494H229.979L229.124 204.147ZM227.579 198.877L227.279 199.349L224.92 195.65H225.522L227.579 198.877ZM229.733 203.19L230.034 202.719L231.804 205.494H231.202L229.733 203.19ZM228.188 197.92L227.887 198.398L226.13 195.65H226.739L228.188 197.92ZM230.334 202.24L230.642 201.762L233.021 205.494H232.412L230.334 202.24ZM228.796 196.97L228.489 197.448L227.34 195.65H227.955L228.796 196.97ZM230.943 201.29L231.25 200.818L234.231 205.494H233.629L230.943 201.29Z" fill="#0B0B0B"/>
<defs>
<filter id="filter0_nn_5_684" x="18" y="18" width="364" height="364" filterUnits="userSpaceOnUse" color-interpolation-filters="sRGB">
<feFlood flood-opacity="0" result="BackgroundImageFix"/>
<feBlend mode="normal" in="SourceGraphic" in2="BackgroundImageFix" result="shape"/>
<feTurbulence type="fractalNoise" baseFrequency="0.068027213215827942 0.068027213215827942" stitchTiles="stitch" numOctaves="3" result="noise" seed="1847" />
<feColorMatrix in="noise" type="luminanceToAlpha" result="alphaNoise" />
<feComponentTransfer in="alphaNoise" result="coloredNoise1">
<feFuncA type="discrete" tableValues="0 0 0 0 0 0 0 0 0 0 1 1 1 1 1 1 1 1 1 1 1 1 1 1 1 1 1 1 1 1 1 1 1 1 1 1 1 1 1 1 0 0 0 0 0 0 0 0 0 0 0 0 0 0 0 0 0 0 0 0 0 0 0 0 0 0 0 0 0 0 0 0 0 0 0 0 0 0 0 0 0 0 0 0 0 0 0 0 0 0 0 0 0 0 0 0 0 0 0 0 "/>
</feComponentTransfer>
<feComposite operator="in" in2="shape" in="coloredNoise1" result="noise1Clipped" />
<feFlood flood-color="rgba(0, 0, 0, 0.13)" result="color1Flood" />
<feComposite operator="in" in2="noise1Clipped" in="color1Flood" result="color1" />
<feMerge result="effect1_noise_5_684">
<feMergeNode in="shape" />
<feMergeNode in="color1" />
</feMerge>
<feTurbulence type="fractalNoise" baseFrequency="0.28571429848670959 0.28571429848670959" stitchTiles="stitch" numOctaves="3" result="noise" seed="3668" />
<feColorMatrix in="noise" type="luminanceToAlpha" result="alphaNoise" />
<feComponentTransfer in="alphaNoise" result="coloredNoise1">
<feFuncA type="discrete" tableValues="1 1 1 1 1 1 1 1 1 1 1 1 1 1 1 1 1 1 1 1 1 1 1 1 1 1 1 1 1 1 1 1 1 1 1 1 1 1 1 1 1 1 1 1 1 1 1 1 1 1 1 0 0 0 0 0 0 0 0 0 0 0 0 0 0 0 0 0 0 0 0 0 0 0 0 0 0 0 0 0 0 0 0 0 0 0 0 0 0 0 0 0 0 0 0 0 0 0 0 0 "/>
</feComponentTransfer>
<feComposite operator="in" in2="effect1_noise_5_684" in="coloredNoise1" result="noise1Clipped" />
<feFlood flood-color="rgba(0, 0, 0, 0.07)" result="color1Flood" />
<feComposite operator="in" in2="noise1Clipped" in="color1Flood" result="color1" />
<feMerge result="effect2_noise_5_684">
<feMergeNode in="effect1_noise_5_684" />
<feMergeNode in="color1" />
</feMerge>
</filter>
</defs>
</svg>
