<svg width="110" height="110" viewBox="0 0 110 110" fill="none" xmlns="http://www.w3.org/2000/svg">
<g filter="url(#filter0_nn_5_656)">
<circle cx="54.5" cy="54.5" r="45.5" fill="#0B0B0B"/>
</g>
<circle cx="54.5001" cy="54.5001" r="20.6195" stroke="#1E1E1E" stroke-width="0.6"/>
<circle cx="54.4998" cy="54.4998" r="23.2345" stroke="#1E1E1E" stroke-width="0.6"/>
<circle opacity="0.99" cx="54.5" cy="54.5" r="25.8494" stroke="#1E1E1E" stroke-width="0.6"/>
<circle opacity="0.89" cx="54.5002" cy="54.5002" r="28.4644" stroke="#1E1E1E" stroke-width="0.6"/>
<circle opacity="0.89" cx="54.4999" cy="54.4999" r="31.0793" stroke="#1E1E1E" stroke-width="0.6"/>
<circle opacity="0.89" cx="54.5001" cy="54.5001" r="33.6943" stroke="#1E1E1E" stroke-width="0.6"/>
<circle opacity="0.89" cx="54.4998" cy="54.4998" r="36.3092" stroke="#1E1E1E" stroke-width="0.6"/>
<circle opacity="0.89" cx="54.5" cy="54.5" r="38.9241" stroke="#1E1E1E" stroke-width="0.6"/>
<circle opacity="0.89" cx="54.5002" cy="54.5002" r="41.5391" stroke="#1E1E1E" stroke-width="0.6"/>
<circle cx="54.3692" cy="54.6309" r="18.1739" fill="#D33232"/>
<path d="M46.9339 55.3057V55.2002C47.0023 55.2002 47.0594 55.1807 47.1053 55.1416C47.1522 55.1025 47.1756 55.0508 47.1756 54.9863V53.5142H47.2811V54.9863C47.2811 55.0791 47.2474 55.1558 47.18 55.2163C47.1126 55.2759 47.0306 55.3057 46.9339 55.3057ZM46.9339 55.5166V55.4111C47.0609 55.4111 47.1678 55.3701 47.2547 55.2881C47.3426 55.2051 47.3866 55.1045 47.3866 54.9863V53.5142H47.492V54.9863C47.492 55.1328 47.4378 55.2578 47.3294 55.3613C47.222 55.4648 47.0902 55.5166 46.9339 55.5166ZM46.9339 55.7275V55.6221C47.1195 55.6221 47.2762 55.5601 47.4041 55.436C47.533 55.312 47.5975 55.1621 47.5975 54.9863V53.5142H47.703V54.9863C47.703 55.1201 47.6688 55.2441 47.6004 55.3584C47.533 55.4717 47.4403 55.5615 47.3221 55.6279C47.2039 55.6943 47.0745 55.7275 46.9339 55.7275ZM46.9339 55.9385V55.833C47.054 55.833 47.1678 55.8105 47.2752 55.7656C47.3836 55.7207 47.4764 55.6606 47.5536 55.5854C47.6317 55.5093 47.6937 55.4189 47.7396 55.3145C47.7855 55.21 47.8084 55.1006 47.8084 54.9863V53.5142H47.9139V54.9863C47.9139 55.1152 47.888 55.2383 47.8363 55.3555C47.7855 55.4727 47.7162 55.5737 47.6283 55.6587C47.5413 55.7446 47.4373 55.8125 47.3162 55.8623C47.1952 55.9131 47.0677 55.9385 46.9339 55.9385ZM49.5662 54.689V53.5142H49.6717V54.689C49.6717 54.8003 49.6287 54.896 49.5428 54.9761C49.4579 55.0562 49.3553 55.0962 49.2352 55.0962C49.1151 55.0962 49.012 55.0562 48.9261 54.9761C48.8412 54.896 48.7987 54.8003 48.7987 54.689V53.5142H48.9041V54.689C48.9041 54.772 48.9364 54.8433 49.0008 54.9028C49.0662 54.9614 49.1444 54.9907 49.2352 54.9907C49.326 54.9907 49.4037 54.9614 49.4681 54.9028C49.5335 54.8433 49.5662 54.772 49.5662 54.689ZM49.7772 54.689V53.5142H49.8827V54.689C49.8827 54.8599 49.8192 55.0059 49.6922 55.127C49.5653 55.2471 49.4129 55.3071 49.2352 55.3071C49.0575 55.3071 48.9051 55.2471 48.7782 55.127C48.6512 55.0059 48.5877 54.8599 48.5877 54.689V53.5142H48.6932V54.689C48.6932 54.8306 48.7459 54.9517 48.8514 55.0522C48.9579 55.1519 49.0858 55.2017 49.2352 55.2017C49.3836 55.2017 49.5111 55.1519 49.6175 55.0522C49.724 54.9517 49.7772 54.8306 49.7772 54.689ZM49.9881 54.689V53.5142H50.0936V54.689C50.0936 54.8384 50.055 54.9771 49.9779 55.105C49.9007 55.2319 49.7962 55.3325 49.6644 55.4067C49.5326 55.481 49.3895 55.5181 49.2352 55.5181C49.0809 55.5181 48.9378 55.481 48.806 55.4067C48.6742 55.3325 48.5697 55.2319 48.4925 55.105C48.4154 54.9771 48.3768 54.8384 48.3768 54.689V53.5142H48.4823V54.689C48.4823 54.8188 48.516 54.9395 48.5833 55.0508C48.6507 55.1621 48.742 55.2505 48.8573 55.3159C48.9735 55.3804 49.0995 55.4126 49.2352 55.4126C49.3709 55.4126 49.4964 55.3804 49.6117 55.3159C49.7279 55.2505 49.8197 55.1621 49.887 55.0508C49.9544 54.9395 49.9881 54.8188 49.9881 54.689ZM50.1991 54.689V53.5142H50.3045V54.689C50.3045 54.8296 50.2762 54.9644 50.2196 55.0933C50.1629 55.2212 50.0868 55.3315 49.9911 55.4243C49.8954 55.5171 49.7816 55.5908 49.6497 55.6455C49.5179 55.7012 49.3797 55.729 49.2352 55.729C49.0907 55.729 48.9525 55.7012 48.8206 55.6455C48.6888 55.5908 48.575 55.5171 48.4793 55.4243C48.3836 55.3315 48.3075 55.2212 48.2508 55.0933C48.1942 54.9644 48.1659 54.8296 48.1659 54.689V53.5142H48.2713V54.689C48.2713 54.8569 48.3143 55.0127 48.4002 55.1562C48.4871 55.2998 48.6043 55.4136 48.7518 55.4976C48.9002 55.5815 49.0614 55.6235 49.2352 55.6235C49.409 55.6235 49.5697 55.5815 49.7171 55.4976C49.8656 55.4136 49.9828 55.2998 50.0687 55.1562C50.1556 55.0127 50.1991 54.8569 50.1991 54.689ZM52.786 53.5142L52.1986 54.5776L52.7772 55.6235H52.66L52.0814 54.5776L52.6688 53.5142H52.786ZM52.5501 53.5142L51.9627 54.5776L52.5413 55.6235H52.4242L51.8455 54.5776L52.4329 53.5142H52.5501ZM52.3143 53.5142L51.7269 54.5776L52.3055 55.6235H52.1883L51.6097 54.5776L52.1971 53.5142H52.3143ZM52.0785 53.5142L51.4896 54.5776L52.0697 55.6235H51.9525L51.3724 54.5776L51.9613 53.5142H52.0785ZM51.2025 53.5142V55.6235H51.3079V53.5142H51.2025ZM50.9915 53.5142V55.6235H51.097V53.5142H50.9915ZM50.7806 53.5142V55.6235H50.8861V53.5142H50.7806ZM50.5697 53.5142V55.6235H50.6751V53.5142H50.5697ZM53.5023 55.6235H53.3968V53.5142H53.5023V55.6235ZM53.2913 55.6235H53.1859V53.5142H53.2913V55.6235ZM53.0804 55.6235H52.9749V53.5142H53.0804V55.6235ZM53.7132 55.0962H54.7225V55.2017H53.7132V55.3071H54.7225V55.4126H53.7132V55.5181H54.7225V55.6235H53.6078V53.5142H54.7225V53.6196H53.7132V53.7251H54.7225V53.8306H53.7132V53.936H54.7225V54.0415H53.7132V54.3037H54.6639V54.4092H53.7132V54.5146H54.6639V54.6201H53.7132V54.7256H54.6639V54.8311H53.7132V55.0962ZM56.6283 54.5571C56.6273 54.5571 56.6268 54.5576 56.6268 54.5586C56.6737 54.6064 56.7127 54.6655 56.744 54.7358C56.7752 54.8062 56.7909 54.8774 56.7909 54.9497C56.7909 55.1069 56.7367 55.2393 56.6283 55.3467C56.5208 55.4531 56.3919 55.5063 56.2415 55.5063H55.575V55.6118H56.2415C56.3607 55.6118 56.4691 55.5859 56.5667 55.5342C56.6654 55.4824 56.745 55.4058 56.8055 55.3042C56.8661 55.2017 56.8963 55.0835 56.8963 54.9497C56.8963 54.8101 56.8543 54.6821 56.7704 54.5659C56.8543 54.4536 56.8963 54.3193 56.8963 54.1631C56.8963 54.0488 56.8665 53.9419 56.807 53.8423C56.7474 53.7417 56.6668 53.6621 56.5653 53.6035C56.4647 53.5439 56.3568 53.5142 56.2415 53.5142H54.9759V55.6235H55.0814V53.6196H56.2415C56.39 53.6196 56.5184 53.6738 56.6268 53.7822C56.7362 53.8896 56.7909 54.0166 56.7909 54.1631C56.7909 54.3174 56.7357 54.4482 56.6253 54.5557L56.6283 54.5571ZM56.2415 55.0845C56.2777 55.0845 56.3079 55.0728 56.3324 55.0493C56.3568 55.0259 56.369 54.9927 56.369 54.9497C56.369 54.9146 56.3558 54.8833 56.3294 54.856C56.304 54.8286 56.2747 54.8149 56.2415 54.8149H55.5736V54.7095H56.2415C56.3031 54.7095 56.3573 54.7339 56.4041 54.7827C56.451 54.8306 56.4745 54.8862 56.4745 54.9497C56.4745 55.0229 56.4515 55.0815 56.4056 55.1255C56.3607 55.1685 56.306 55.1899 56.2415 55.1899H55.575V55.0845H56.2415ZM56.2415 55.2954C56.3343 55.2954 56.4139 55.2632 56.4803 55.1987C56.5467 55.1343 56.5799 55.0513 56.5799 54.9497C56.5799 54.8579 56.5457 54.7773 56.4774 54.708C56.41 54.6387 56.3314 54.604 56.2415 54.604H55.9193H55.575V54.4985H55.9193H56.2415C56.3343 54.4985 56.4139 54.4673 56.4803 54.4048C56.5467 54.3413 56.5799 54.2607 56.5799 54.1631C56.5799 54.0752 56.5457 53.998 56.4774 53.9316C56.41 53.8643 56.3314 53.8306 56.2415 53.8306H55.2923V55.6235H55.1869V53.7251H56.2415C56.3607 53.7251 56.4642 53.769 56.5521 53.8569C56.641 53.9438 56.6854 54.0459 56.6854 54.1631C56.6854 54.249 56.6634 54.3267 56.6195 54.396C56.5765 54.4644 56.5194 54.5171 56.4481 54.5542C56.5194 54.5933 56.5765 54.6489 56.6195 54.7212C56.6634 54.7925 56.6854 54.8687 56.6854 54.9497C56.6854 55.0776 56.6414 55.1851 56.5536 55.272C56.4666 55.3579 56.3626 55.4009 56.2415 55.4009H55.575V55.2954H56.2415ZM56.2415 54.2876C56.2777 54.2876 56.3079 54.2769 56.3324 54.2554C56.3568 54.2339 56.369 54.2031 56.369 54.1631C56.369 54.1318 56.3558 54.104 56.3294 54.0796C56.304 54.0542 56.2747 54.0415 56.2415 54.0415H55.5033V55.6235H55.3978V53.936H56.2415C56.3031 53.936 56.3573 53.959 56.4041 54.0049C56.451 54.0508 56.4745 54.1035 56.4745 54.1631C56.4745 54.2334 56.452 54.2896 56.4071 54.3315C56.3621 54.3726 56.307 54.3931 56.2415 54.3931H55.575V54.2876H56.2415ZM57.9437 54.2715C57.8617 54.3535 57.8206 54.4526 57.8206 54.5688C57.8206 54.6851 57.8617 54.7847 57.9437 54.8677C58.0267 54.9497 58.1263 54.9907 58.2425 54.9907C58.3587 54.9907 58.4579 54.9497 58.5399 54.8677C58.6229 54.7847 58.6644 54.6851 58.6644 54.5688C58.6644 54.4526 58.6229 54.3535 58.5399 54.2715C58.4579 54.1885 58.3587 54.147 58.2425 54.147C58.1263 54.147 58.0267 54.1885 57.9437 54.2715ZM57.869 54.9424C57.7664 54.8389 57.7152 54.7144 57.7152 54.5688C57.7152 54.4233 57.7664 54.2993 57.869 54.1968C57.9725 54.0933 58.097 54.0415 58.2425 54.0415C58.388 54.0415 58.512 54.0933 58.6146 54.1968C58.7181 54.2993 58.7699 54.4233 58.7699 54.5688C58.7699 54.7144 58.7181 54.8389 58.6146 54.9424C58.512 55.0449 58.388 55.0962 58.2425 55.0962C58.097 55.0962 57.9725 55.0449 57.869 54.9424ZM57.7943 54.1221C57.6712 54.2461 57.6097 54.395 57.6097 54.5688C57.6097 54.7427 57.6712 54.8916 57.7943 55.0156C57.9183 55.1396 58.0677 55.2017 58.2425 55.2017C58.4173 55.2017 58.5662 55.1396 58.6893 55.0156C58.8133 54.8916 58.8753 54.7427 58.8753 54.5688C58.8753 54.395 58.8133 54.2461 58.6893 54.1221C58.5662 53.998 58.4173 53.936 58.2425 53.936C58.0677 53.936 57.9183 53.998 57.7943 54.1221ZM57.6024 54.9395C57.537 54.8262 57.5042 54.7026 57.5042 54.5688C57.5042 54.4351 57.537 54.3115 57.6024 54.1982C57.6688 54.085 57.7586 53.9956 57.8719 53.9302C57.9852 53.8638 58.1087 53.8306 58.2425 53.8306C58.3763 53.8306 58.4998 53.8638 58.6131 53.9302C58.7264 53.9956 58.8158 54.085 58.8812 54.1982C58.9476 54.3115 58.9808 54.4351 58.9808 54.5688C58.9808 54.7026 58.9476 54.8262 58.8812 54.9395C58.8158 55.0527 58.7264 55.1426 58.6131 55.209C58.4998 55.2744 58.3763 55.3071 58.2425 55.3071C58.1087 55.3071 57.9852 55.2744 57.8719 55.209C57.7586 55.1426 57.6688 55.0527 57.6024 54.9395ZM57.4647 54.2422C57.4207 54.3457 57.3988 54.4546 57.3988 54.5688C57.3988 54.6831 57.4207 54.7925 57.4647 54.897C57.5096 55.0005 57.5697 55.0903 57.6449 55.1665C57.721 55.2417 57.8109 55.3018 57.9144 55.3467C58.0189 55.3906 58.1283 55.4126 58.2425 55.4126C58.3568 55.4126 58.4657 55.3906 58.5692 55.3467C58.6737 55.3018 58.7635 55.2417 58.8387 55.1665C58.9149 55.0903 58.9749 55.0005 59.0189 54.897C59.0638 54.7925 59.0863 54.6831 59.0863 54.5688C59.0863 54.4546 59.0638 54.3457 59.0189 54.2422C58.9749 54.1377 58.9149 54.0479 58.8387 53.9727C58.7635 53.8965 58.6737 53.8364 58.5692 53.7925C58.4657 53.7476 58.3568 53.7251 58.2425 53.7251C58.1283 53.7251 58.0189 53.7476 57.9144 53.7925C57.8109 53.8364 57.721 53.8965 57.6449 53.9727C57.5697 54.0479 57.5096 54.1377 57.4647 54.2422ZM57.368 54.938C57.3182 54.8208 57.2933 54.6978 57.2933 54.5688C57.2933 54.4399 57.3182 54.3169 57.368 54.1997C57.4188 54.0825 57.4862 53.9819 57.5702 53.8979C57.6551 53.813 57.7562 53.7456 57.8734 53.6958C57.9906 53.645 58.1136 53.6196 58.2425 53.6196C58.3714 53.6196 58.4945 53.645 58.6117 53.6958C58.7288 53.7456 58.8294 53.813 58.9134 53.8979C58.9984 53.9819 59.0658 54.0825 59.1156 54.1997C59.1663 54.3169 59.1917 54.4399 59.1917 54.5688C59.1917 54.6978 59.1663 54.8208 59.1156 54.938C59.0658 55.0552 58.9984 55.1562 58.9134 55.2412C58.8294 55.3252 58.7288 55.3926 58.6117 55.4434C58.4945 55.4932 58.3714 55.5181 58.2425 55.5181C58.1136 55.5181 57.9906 55.4932 57.8734 55.4434C57.7562 55.3926 57.6551 55.3252 57.5702 55.2412C57.4862 55.1562 57.4188 55.0552 57.368 54.938ZM57.2713 54.1602C57.2157 54.29 57.1878 54.4263 57.1878 54.5688C57.1878 54.7114 57.2157 54.8481 57.2713 54.979C57.327 55.1089 57.4017 55.2212 57.4954 55.3159C57.5902 55.4097 57.7025 55.4844 57.8324 55.54C57.9632 55.5957 58.0999 55.6235 58.2425 55.6235C58.3851 55.6235 58.5213 55.5957 58.6512 55.54C58.7821 55.4844 58.8944 55.4097 58.9881 55.3159C59.0829 55.2212 59.158 55.1089 59.2137 54.979C59.2694 54.8481 59.2972 54.7114 59.2972 54.5688C59.2972 54.4263 59.2694 54.29 59.2137 54.1602C59.158 54.0293 59.0829 53.917 58.9881 53.8232C58.8944 53.7285 58.7821 53.6533 58.6512 53.5977C58.5213 53.542 58.3851 53.5142 58.2425 53.5142C58.0999 53.5142 57.9632 53.542 57.8324 53.5977C57.7025 53.6533 57.5902 53.7285 57.4954 53.8232C57.4017 53.917 57.327 54.0293 57.2713 54.1602ZM57.1746 55.02C57.1131 54.8765 57.0824 54.7261 57.0824 54.5688C57.0824 54.4116 57.1131 54.2617 57.1746 54.1191C57.2362 53.9756 57.3187 53.8521 57.4222 53.7485C57.5257 53.645 57.6488 53.5625 57.7913 53.501C57.9349 53.4395 58.0853 53.4087 58.2425 53.4087C58.3997 53.4087 58.5496 53.4395 58.6922 53.501C58.8358 53.5625 58.9593 53.645 59.0628 53.7485C59.1663 53.8521 59.2489 53.9756 59.3104 54.1191C59.3719 54.2617 59.4027 54.4116 59.4027 54.5688C59.4027 54.7261 59.3719 54.8765 59.3104 55.02C59.2489 55.1626 59.1663 55.2856 59.0628 55.3892C58.9593 55.4927 58.8358 55.5752 58.6922 55.6367C58.5496 55.6982 58.3997 55.729 58.2425 55.729C58.0853 55.729 57.9349 55.6982 57.7913 55.6367C57.6488 55.5752 57.5257 55.4927 57.4222 55.3892C57.3187 55.2856 57.2362 55.1626 57.1746 55.02ZM61.6878 53.5142H61.8167L60.472 55.6235H60.3402L61.6878 53.5142ZM61.4271 53.5142H61.556L60.2098 55.6235H60.0809L61.4271 53.5142ZM61.1663 53.5142H61.2967L59.9505 55.6235H59.8202L61.1663 53.5142ZM60.9056 53.5142H61.0374L59.6898 55.6235H59.5609L60.9056 53.5142ZM60.2611 54.4092L60.1966 54.5117L59.5609 53.5142H59.6898L60.2611 54.4092ZM60.7225 55.335L60.787 55.2324L61.0374 55.6235H60.9056L60.7225 55.335ZM60.3914 54.2056L60.327 54.3066L59.8216 53.5142H59.9505L60.3914 54.2056ZM60.8529 55.1299L60.9173 55.0288L61.2967 55.6235H61.1678L60.8529 55.1299ZM60.5218 54.0005L60.4574 54.103L60.0809 53.5142H60.2113L60.5218 54.0005ZM60.9818 54.9263L61.0477 54.8237L61.5575 55.6235H61.4271L60.9818 54.9263ZM60.6522 53.7969L60.5863 53.8994L60.3402 53.5142H60.472L60.6522 53.7969ZM61.1121 54.7227L61.1781 54.6216L61.8167 55.6235H61.6878L61.1121 54.7227Z" fill="#0B0B0B"/>
<defs>
<filter id="filter0_nn_5_656" x="9" y="9" width="91" height="91" filterUnits="userSpaceOnUse" color-interpolation-filters="sRGB">
<feFlood flood-opacity="0" result="BackgroundImageFix"/>
<feBlend mode="normal" in="SourceGraphic" in2="BackgroundImageFix" result="shape"/>
<feTurbulence type="fractalNoise" baseFrequency="0.068027213215827942 0.068027213215827942" stitchTiles="stitch" numOctaves="3" result="noise" seed="1847" />
<feColorMatrix in="noise" type="luminanceToAlpha" result="alphaNoise" />
<feComponentTransfer in="alphaNoise" result="coloredNoise1">
<feFuncA type="discrete" tableValues="0 0 0 0 0 0 0 0 0 0 1 1 1 1 1 1 1 1 1 1 1 1 1 1 1 1 1 1 1 1 1 1 1 1 1 1 1 1 1 1 0 0 0 0 0 0 0 0 0 0 0 0 0 0 0 0 0 0 0 0 0 0 0 0 0 0 0 0 0 0 0 0 0 0 0 0 0 0 0 0 0 0 0 0 0 0 0 0 0 0 0 0 0 0 0 0 0 0 0 0 "/>
</feComponentTransfer>
<feComposite operator="in" in2="shape" in="coloredNoise1" result="noise1Clipped" />
<feFlood flood-color="rgba(0, 0, 0, 0.13)" result="color1Flood" />
<feComposite operator="in" in2="noise1Clipped" in="color1Flood" result="color1" />
<feMerge result="effect1_noise_5_656">
<feMergeNode in="shape" />
<feMergeNode in="color1" />
</feMerge>
<feTurbulence type="fractalNoise" baseFrequency="0.28571429848670959 0.28571429848670959" stitchTiles="stitch" numOctaves="3" result="noise" seed="3668" />
<feColorMatrix in="noise" type="luminanceToAlpha" result="alphaNoise" />
<feComponentTransfer in="alphaNoise" result="coloredNoise1">
<feFuncA type="discrete" tableValues="1 1 1 1 1 1 1 1 1 1 1 1 1 1 1 1 1 1 1 1 1 1 1 1 1 1 1 1 1 1 1 1 1 1 1 1 1 1 1 1 1 1 1 1 1 1 1 1 1 1 1 0 0 0 0 0 0 0 0 0 0 0 0 0 0 0 0 0 0 0 0 0 0 0 0 0 0 0 0 0 0 0 0 0 0 0 0 0 0 0 0 0 0 0 0 0 0 0 0 0 "/>
</feComponentTransfer>
<feComposite operator="in" in2="effect1_noise_5_656" in="coloredNoise1" result="noise1Clipped" />
<feFlood flood-color="rgba(0, 0, 0, 0.07)" result="color1Flood" />
<feComposite operator="in" in2="noise1Clipped" in="color1Flood" result="color1" />
<feMerge result="effect2_noise_5_656">
<feMergeNode in="effect1_noise_5_656" />
<feMergeNode in="color1" />
</feMerge>
</filter>
</defs>
</svg>
