<svg width="400" height="100" viewBox="0 0 400 100" fill="none" xmlns="http://www.w3.org/2000/svg">
<path d="M40.875 67.2188V64.9688C42.3333 64.9688 43.5521 64.5521 44.5312 63.7188C45.5312 62.8854 46.0312 61.7812 46.0312 60.4062V29H48.2812V60.4062C48.2812 62.3854 47.5625 64.0208 46.125 65.3125C44.6875 66.5833 42.9375 67.2188 40.875 67.2188ZM40.875 71.7188V69.4688C43.5833 69.4688 45.8646 68.5938 47.7188 66.8438C49.5938 65.0729 50.5312 62.9271 50.5312 60.4062V29H52.7812V60.4062C52.7812 63.5312 51.625 66.1979 49.3125 68.4062C47.0208 70.6146 44.2083 71.7188 40.875 71.7188ZM40.875 76.2188V73.9688C44.8333 73.9688 48.1771 72.6458 50.9062 70C53.6562 67.3542 55.0312 64.1562 55.0312 60.4062V29H57.2812V60.4062C57.2812 63.2604 56.5521 65.9062 55.0938 68.3438C53.6562 70.7604 51.6771 72.6771 49.1562 74.0938C46.6354 75.5104 43.875 76.2188 40.875 76.2188ZM40.875 80.7188V78.4688C43.4375 78.4688 45.8646 77.9896 48.1562 77.0312C50.4688 76.0729 52.4479 74.7917 54.0938 73.1875C55.7604 71.5625 57.0833 69.6354 58.0625 67.4062C59.0417 65.1771 59.5312 62.8438 59.5312 60.4062V29H61.7812V60.4062C61.7812 63.1562 61.2292 65.7812 60.125 68.2812C59.0417 70.7812 57.5625 72.9375 55.6875 74.75C53.8333 76.5833 51.6146 78.0312 49.0312 79.0938C46.4479 80.1771 43.7292 80.7188 40.875 80.7188ZM97.0312 54.0625V29H99.2812V54.0625C99.2812 56.4375 98.3646 58.4792 96.5312 60.1875C94.7188 61.8958 92.5312 62.75 89.9688 62.75C87.4062 62.75 85.2083 61.8958 83.375 60.1875C81.5625 58.4792 80.6562 56.4375 80.6562 54.0625V29H82.9062V54.0625C82.9062 55.8333 83.5938 57.3542 84.9688 58.625C86.3646 59.875 88.0312 60.5 89.9688 60.5C91.9062 60.5 93.5625 59.875 94.9375 58.625C96.3333 57.3542 97.0312 55.8333 97.0312 54.0625ZM101.531 54.0625V29H103.781V54.0625C103.781 57.7083 102.427 60.8229 99.7188 63.4062C97.0104 65.9688 93.7604 67.25 89.9688 67.25C86.1771 67.25 82.9271 65.9688 80.2188 63.4062C77.5104 60.8229 76.1562 57.7083 76.1562 54.0625V29H78.4062V54.0625C78.4062 57.0833 79.5312 59.6667 81.7812 61.8125C84.0521 63.9375 86.7812 65 89.9688 65C93.1354 65 95.8542 63.9375 98.125 61.8125C100.396 59.6667 101.531 57.0833 101.531 54.0625ZM106.031 54.0625V29H108.281V54.0625C108.281 57.25 107.458 60.2083 105.812 62.9375C104.167 65.6458 101.938 67.7917 99.125 69.375C96.3125 70.9583 93.2604 71.75 89.9688 71.75C86.6771 71.75 83.625 70.9583 80.8125 69.375C78 67.7917 75.7708 65.6458 74.125 62.9375C72.4792 60.2083 71.6562 57.25 71.6562 54.0625V29H73.9062V54.0625C73.9062 56.8333 74.625 59.4062 76.0625 61.7812C77.5 64.1562 79.4479 66.0417 81.9062 67.4375C84.3854 68.8125 87.0729 69.5 89.9688 69.5C92.8646 69.5 95.5417 68.8125 98 67.4375C100.479 66.0417 102.438 64.1562 103.875 61.7812C105.312 59.4062 106.031 56.8333 106.031 54.0625ZM110.531 54.0625V29H112.781V54.0625C112.781 57.0625 112.177 59.9375 110.969 62.6875C109.76 65.4167 108.135 67.7708 106.094 69.75C104.052 71.7292 101.625 73.3021 98.8125 74.4688C96 75.6562 93.0521 76.25 89.9688 76.25C86.8854 76.25 83.9375 75.6562 81.125 74.4688C78.3125 73.3021 75.8854 71.7292 73.8438 69.75C71.8021 67.7708 70.1771 65.4167 68.9688 62.6875C67.7604 59.9375 67.1562 57.0625 67.1562 54.0625V29H69.4062V54.0625C69.4062 57.6458 70.3229 60.9688 72.1562 64.0312C74.0104 67.0938 76.5104 69.5208 79.6562 71.3125C82.8229 73.1042 86.2604 74 89.9688 74C93.6771 74 97.1042 73.1042 100.25 71.3125C103.417 69.5208 105.917 67.0938 107.75 64.0312C109.604 60.9688 110.531 57.6458 110.531 54.0625ZM165.719 29L153.188 51.6875L165.531 74H163.031L150.688 51.6875L163.219 29H165.719ZM160.688 29L148.156 51.6875L160.5 74H158L145.656 51.6875L158.188 29H160.688ZM155.656 29L143.125 51.6875L155.469 74H152.969L140.625 51.6875L153.156 29H155.656ZM150.625 29L138.062 51.6875L150.438 74H147.938L135.562 51.6875L148.125 29H150.625ZM131.938 29V74H134.188V29H131.938ZM127.438 29V74H129.688V29H127.438ZM122.938 29V74H125.188V29H122.938ZM118.438 29V74H120.688V29H118.438ZM181 74H178.75V29H181V74ZM176.5 74H174.25V29H176.5V74ZM172 74H169.75V29H172V74ZM185.5 62.75H207.031V65H185.5V67.25H207.031V69.5H185.5V71.75H207.031V74H183.25V29H207.031V31.25H185.5V33.5H207.031V35.75H185.5V38H207.031V40.25H185.5V45.8438H205.781V48.0938H185.5V50.3438H205.781V52.5938H185.5V54.8438H205.781V57.0938H185.5V62.75ZM247.688 51.25C247.667 51.25 247.656 51.2604 247.656 51.2812C248.656 52.3021 249.49 53.5625 250.156 55.0625C250.823 56.5625 251.156 58.0833 251.156 59.625C251.156 62.9792 250 65.8021 247.688 68.0938C245.396 70.3646 242.646 71.5 239.438 71.5H225.219V73.75H239.438C241.979 73.75 244.292 73.1979 246.375 72.0938C248.479 70.9896 250.177 69.3542 251.469 67.1875C252.76 65 253.406 62.4792 253.406 59.625C253.406 56.6458 252.51 53.9167 250.719 51.4375C252.51 49.0417 253.406 46.1771 253.406 42.8438C253.406 40.4062 252.771 38.125 251.5 36C250.229 33.8542 248.51 32.1562 246.344 30.9062C244.198 29.6354 241.896 29 239.438 29H212.438V74H214.688V31.25H239.438C242.604 31.25 245.344 32.4062 247.656 34.7188C249.99 37.0104 251.156 39.7188 251.156 42.8438C251.156 46.1354 249.979 48.9271 247.625 51.2188L247.688 51.25ZM239.438 62.5C240.208 62.5 240.854 62.25 241.375 61.75C241.896 61.25 242.156 60.5417 242.156 59.625C242.156 58.875 241.875 58.2083 241.312 57.625C240.771 57.0417 240.146 56.75 239.438 56.75H225.188V54.5H239.438C240.75 54.5 241.906 55.0208 242.906 56.0625C243.906 57.0833 244.406 58.2708 244.406 59.625C244.406 61.1875 243.917 62.4375 242.938 63.375C241.979 64.2917 240.812 64.75 239.438 64.75H225.219V62.5H239.438ZM239.438 67C241.417 67 243.115 66.3125 244.531 64.9375C245.948 63.5625 246.656 61.7917 246.656 59.625C246.656 57.6667 245.927 55.9479 244.469 54.4688C243.031 52.9896 241.354 52.25 239.438 52.25H232.562H225.219V50H232.562H239.438C241.417 50 243.115 49.3333 244.531 48C245.948 46.6458 246.656 44.9271 246.656 42.8438C246.656 40.9688 245.927 39.3229 244.469 37.9062C243.031 36.4688 241.354 35.75 239.438 35.75H219.188V74H216.938V33.5H239.438C241.979 33.5 244.188 34.4375 246.062 36.3125C247.958 38.1667 248.906 40.3438 248.906 42.8438C248.906 44.6771 248.438 46.3333 247.5 47.8125C246.583 49.2708 245.365 50.3958 243.844 51.1875C245.365 52.0208 246.583 53.2083 247.5 54.75C248.438 56.2708 248.906 57.8958 248.906 59.625C248.906 62.3542 247.969 64.6458 246.094 66.5C244.24 68.3333 242.021 69.25 239.438 69.25H225.219V67H239.438ZM239.438 45.5C240.208 45.5 240.854 45.2708 241.375 44.8125C241.896 44.3542 242.156 43.6979 242.156 42.8438C242.156 42.1771 241.875 41.5833 241.312 41.0625C240.771 40.5208 240.146 40.25 239.438 40.25H223.688V74H221.438V38H239.438C240.75 38 241.906 38.4896 242.906 39.4688C243.906 40.4479 244.406 41.5729 244.406 42.8438C244.406 44.3438 243.927 45.5417 242.969 46.4375C242.01 47.3125 240.833 47.75 239.438 47.75H225.219V45.5H239.438ZM275.75 45.1562C274 46.9062 273.125 49.0208 273.125 51.5C273.125 53.9792 274 56.1042 275.75 57.875C277.521 59.625 279.646 60.5 282.125 60.5C284.604 60.5 286.719 59.625 288.469 57.875C290.24 56.1042 291.125 53.9792 291.125 51.5C291.125 49.0208 290.24 46.9062 288.469 45.1562C286.719 43.3854 284.604 42.5 282.125 42.5C279.646 42.5 277.521 43.3854 275.75 45.1562ZM274.156 59.4688C271.969 57.2604 270.875 54.6042 270.875 51.5C270.875 48.3958 271.969 45.75 274.156 43.5625C276.365 41.3542 279.021 40.25 282.125 40.25C285.229 40.25 287.875 41.3542 290.062 43.5625C292.271 45.75 293.375 48.3958 293.375 51.5C293.375 54.6042 292.271 57.2604 290.062 59.4688C287.875 61.6562 285.229 62.75 282.125 62.75C279.021 62.75 276.365 61.6562 274.156 59.4688ZM272.562 41.9688C269.938 44.6146 268.625 47.7917 268.625 51.5C268.625 55.2083 269.938 58.3854 272.562 61.0312C275.208 63.6771 278.396 65 282.125 65C285.854 65 289.031 63.6771 291.656 61.0312C294.302 58.3854 295.625 55.2083 295.625 51.5C295.625 47.7917 294.302 44.6146 291.656 41.9688C289.031 39.3229 285.854 38 282.125 38C278.396 38 275.208 39.3229 272.562 41.9688ZM268.469 59.4062C267.073 56.9896 266.375 54.3542 266.375 51.5C266.375 48.6458 267.073 46.0104 268.469 43.5938C269.885 41.1771 271.802 39.2708 274.219 37.875C276.635 36.4583 279.271 35.75 282.125 35.75C284.979 35.75 287.615 36.4583 290.031 37.875C292.448 39.2708 294.354 41.1771 295.75 43.5938C297.167 46.0104 297.875 48.6458 297.875 51.5C297.875 54.3542 297.167 56.9896 295.75 59.4062C294.354 61.8229 292.448 63.7396 290.031 65.1562C287.615 66.5521 284.979 67.25 282.125 67.25C279.271 67.25 276.635 66.5521 274.219 65.1562C271.802 63.7396 269.885 61.8229 268.469 59.4062ZM265.531 44.5312C264.594 46.7396 264.125 49.0625 264.125 51.5C264.125 53.9375 264.594 56.2708 265.531 58.5C266.49 60.7083 267.771 62.625 269.375 64.25C271 65.8542 272.917 67.1354 275.125 68.0938C277.354 69.0312 279.688 69.5 282.125 69.5C284.562 69.5 286.885 69.0312 289.094 68.0938C291.323 67.1354 293.24 65.8542 294.844 64.25C296.469 62.625 297.75 60.7083 298.688 58.5C299.646 56.2708 300.125 53.9375 300.125 51.5C300.125 49.0625 299.646 46.7396 298.688 44.5312C297.75 42.3021 296.469 40.3854 294.844 38.7812C293.24 37.1562 291.323 35.875 289.094 34.9375C286.885 33.9792 284.562 33.5 282.125 33.5C279.688 33.5 277.354 33.9792 275.125 34.9375C272.917 35.875 271 37.1562 269.375 38.7812C267.771 40.3854 266.49 42.3021 265.531 44.5312ZM263.469 59.375C262.406 56.875 261.875 54.25 261.875 51.5C261.875 48.75 262.406 46.125 263.469 43.625C264.552 41.125 265.99 38.9792 267.781 37.1875C269.594 35.375 271.75 33.9375 274.25 32.875C276.75 31.7917 279.375 31.25 282.125 31.25C284.875 31.25 287.5 31.7917 290 32.875C292.5 33.9375 294.646 35.375 296.438 37.1875C298.25 38.9792 299.688 41.125 300.75 43.625C301.833 46.125 302.375 48.75 302.375 51.5C302.375 54.25 301.833 56.875 300.75 59.375C299.688 61.875 298.25 64.0312 296.438 65.8438C294.646 67.6354 292.5 69.0729 290 70.1562C287.5 71.2188 284.875 71.75 282.125 71.75C279.375 71.75 276.75 71.2188 274.25 70.1562C271.75 69.0729 269.594 67.6354 267.781 65.8438C265.99 64.0312 264.552 61.875 263.469 59.375ZM261.406 42.7812C260.219 45.5521 259.625 48.4583 259.625 51.5C259.625 54.5417 260.219 57.4583 261.406 60.25C262.594 63.0208 264.188 65.4167 266.188 67.4375C268.208 69.4375 270.604 71.0312 273.375 72.2188C276.167 73.4062 279.083 74 282.125 74C285.167 74 288.073 73.4062 290.844 72.2188C293.635 71.0312 296.031 69.4375 298.031 67.4375C300.052 65.4167 301.656 63.0208 302.844 60.25C304.031 57.4583 304.625 54.5417 304.625 51.5C304.625 48.4583 304.031 45.5521 302.844 42.7812C301.656 39.9896 300.052 37.5938 298.031 35.5938C296.031 33.5729 293.635 31.9688 290.844 30.7812C288.073 29.5938 285.167 29 282.125 29C279.083 29 276.167 29.5938 273.375 30.7812C270.604 31.9688 268.208 33.5729 266.188 35.5938C264.188 37.5938 262.594 39.9896 261.406 42.7812ZM259.344 61.125C258.031 58.0625 257.375 54.8542 257.375 51.5C257.375 48.1458 258.031 44.9479 259.344 41.9062C260.656 38.8438 262.417 36.2083 264.625 34C266.833 31.7917 269.458 30.0312 272.5 28.7188C275.562 27.4062 278.771 26.75 282.125 26.75C285.479 26.75 288.677 27.4062 291.719 28.7188C294.781 30.0312 297.417 31.7917 299.625 34C301.833 36.2083 303.594 38.8438 304.906 41.9062C306.219 44.9479 306.875 48.1458 306.875 51.5C306.875 54.8542 306.219 58.0625 304.906 61.125C303.594 64.1667 301.833 66.7917 299.625 69C297.417 71.2083 294.781 72.9688 291.719 74.2812C288.677 75.5938 285.479 76.25 282.125 76.25C278.771 76.25 275.562 75.5938 272.5 74.2812C269.458 72.9688 266.833 71.2083 264.625 69C262.417 66.7917 260.656 64.1667 259.344 61.125ZM355.625 29H358.375L329.688 74H326.875L355.625 29ZM350.062 29H352.812L324.094 74H321.344L350.062 29ZM344.5 29H347.281L318.562 74H315.781L344.5 29ZM338.938 29H341.75L313 74H310.25L338.938 29ZM325.188 48.0938L323.812 50.2812L310.25 29H313L325.188 48.0938ZM335.031 67.8438L336.406 65.6562L341.75 74H338.938L335.031 67.8438ZM327.969 43.75L326.594 45.9062L315.812 29H318.562L327.969 43.75ZM337.812 63.4688L339.188 61.3125L347.281 74H344.531L337.812 63.4688ZM330.75 39.375L329.375 41.5625L321.344 29H324.125L330.75 39.375ZM340.562 59.125L341.969 56.9375L352.844 74H350.062L340.562 59.125ZM333.531 35.0312L332.125 37.2188L326.875 29H329.688L333.531 35.0312ZM343.344 54.7812L344.75 52.625L358.375 74H355.625L343.344 54.7812Z" fill="#D9D9D9"/>
</svg>
