<svg width="250" height="150" viewBox="0 0 250 150" fill="none" xmlns="http://www.w3.org/2000/svg">
<path d="M25.3594 85.7617V84.3555C26.2708 84.3555 27.0326 84.0951 27.6445 83.5742C28.2695 83.0534 28.582 82.3633 28.582 81.5039V61.875H29.9883V81.5039C29.9883 82.7409 29.5391 83.763 28.6406 84.5703C27.7422 85.3646 26.6484 85.7617 25.3594 85.7617ZM25.3594 88.5742V87.168C27.0521 87.168 28.4779 86.6211 29.6367 85.5273C30.8086 84.4206 31.3945 83.0794 31.3945 81.5039V61.875H32.8008V81.5039C32.8008 83.457 32.0781 85.1237 30.6328 86.5039C29.2005 87.8841 27.4427 88.5742 25.3594 88.5742ZM25.3594 91.3867V89.9805C27.8333 89.9805 29.9232 89.1536 31.6289 87.5C33.3477 85.8464 34.207 83.8477 34.207 81.5039V61.875H35.6133V81.5039C35.6133 83.2878 35.1576 84.9414 34.2461 86.4648C33.3477 87.9753 32.1107 89.1732 30.5352 90.0586C28.9596 90.944 27.2344 91.3867 25.3594 91.3867ZM25.3594 94.1992V92.793C26.9609 92.793 28.4779 92.4935 29.9102 91.8945C31.3555 91.2956 32.5924 90.4948 33.6211 89.4922C34.6628 88.4766 35.4896 87.2721 36.1016 85.8789C36.7135 84.4857 37.0195 83.0273 37.0195 81.5039V61.875H38.4258V81.5039C38.4258 83.2227 38.0807 84.8633 37.3906 86.4258C36.7135 87.9883 35.7891 89.3359 34.6172 90.4688C33.4583 91.6146 32.0716 92.5195 30.457 93.1836C28.8424 93.8607 27.1432 94.1992 25.3594 94.1992ZM60.457 77.5391V61.875H61.8633V77.5391C61.8633 79.0234 61.2904 80.2995 60.1445 81.3672C59.0117 82.4349 57.6445 82.9688 56.043 82.9688C54.4414 82.9688 53.0677 82.4349 51.9219 81.3672C50.7891 80.2995 50.2227 79.0234 50.2227 77.5391V61.875H51.6289V77.5391C51.6289 78.6458 52.0586 79.5964 52.918 80.3906C53.7904 81.1719 54.832 81.5625 56.043 81.5625C57.2539 81.5625 58.2891 81.1719 59.1484 80.3906C60.0208 79.5964 60.457 78.6458 60.457 77.5391ZM63.2695 77.5391V61.875H64.6758V77.5391C64.6758 79.8177 63.8294 81.7643 62.1367 83.3789C60.444 84.9805 58.4128 85.7812 56.043 85.7812C53.6732 85.7812 51.6419 84.9805 49.9492 83.3789C48.2565 81.7643 47.4102 79.8177 47.4102 77.5391V61.875H48.8164V77.5391C48.8164 79.4271 49.5195 81.0417 50.9258 82.3828C52.3451 83.7109 54.0508 84.375 56.043 84.375C58.0221 84.375 59.7214 83.7109 61.1406 82.3828C62.5599 81.0417 63.2695 79.4271 63.2695 77.5391ZM66.082 77.5391V61.875H67.4883V77.5391C67.4883 79.5312 66.974 81.3802 65.9453 83.0859C64.9167 84.7786 63.5234 86.1198 61.7656 87.1094C60.0078 88.099 58.1003 88.5938 56.043 88.5938C53.9857 88.5938 52.0781 88.099 50.3203 87.1094C48.5625 86.1198 47.1693 84.7786 46.1406 83.0859C45.112 81.3802 44.5977 79.5312 44.5977 77.5391V61.875H46.0039V77.5391C46.0039 79.2708 46.4531 80.8789 47.3516 82.3633C48.25 83.8477 49.4674 85.026 51.0039 85.8984C52.5534 86.7578 54.2331 87.1875 56.043 87.1875C57.8529 87.1875 59.526 86.7578 61.0625 85.8984C62.612 85.026 63.8359 83.8477 64.7344 82.3633C65.6328 80.8789 66.082 79.2708 66.082 77.5391ZM68.8945 77.5391V61.875H70.3008V77.5391C70.3008 79.4141 69.9232 81.2109 69.168 82.9297C68.4128 84.6354 67.3971 86.1068 66.1211 87.3438C64.8451 88.5807 63.3281 89.5638 61.5703 90.293C59.8125 91.0352 57.9701 91.4062 56.043 91.4062C54.1159 91.4062 52.2734 91.0352 50.5156 90.293C48.7578 89.5638 47.2409 88.5807 45.9648 87.3438C44.6888 86.1068 43.6732 84.6354 42.918 82.9297C42.1628 81.2109 41.7852 79.4141 41.7852 77.5391V61.875H43.1914V77.5391C43.1914 79.7786 43.7643 81.8555 44.9102 83.7695C46.069 85.6836 47.6315 87.2005 49.5977 88.3203C51.5768 89.4401 53.7253 90 56.043 90C58.3607 90 60.5026 89.4401 62.4688 88.3203C64.4479 87.2005 66.0104 85.6836 67.1562 83.7695C68.3151 81.8555 68.8945 79.7786 68.8945 77.5391ZM103.387 61.875L95.5547 76.0547L103.27 90H101.707L93.9922 76.0547L101.824 61.875H103.387ZM100.242 61.875L92.4102 76.0547L100.125 90H98.5625L90.8477 76.0547L98.6797 61.875H100.242ZM97.0977 61.875L89.2656 76.0547L96.9805 90H95.418L87.7031 76.0547L95.5352 61.875H97.0977ZM93.9531 61.875L86.1016 76.0547L93.8359 90H92.2734L84.5391 76.0547L92.3906 61.875H93.9531ZM82.2734 61.875V90H83.6797V61.875H82.2734ZM79.4609 61.875V90H80.8672V61.875H79.4609ZM76.6484 61.875V90H78.0547V61.875H76.6484ZM73.8359 61.875V90H75.2422V61.875H73.8359ZM112.938 90H111.531V61.875H112.938V90ZM110.125 90H108.719V61.875H110.125V90ZM107.312 90H105.906V61.875H107.312V90ZM115.75 82.9688H129.207V84.375H115.75V85.7812H129.207V87.1875H115.75V88.5938H129.207V90H114.344V61.875H129.207V63.2812H115.75V64.6875H129.207V66.0938H115.75V67.5H129.207V68.9062H115.75V72.4023H128.426V73.8086H115.75V75.2148H128.426V76.6211H115.75V78.0273H128.426V79.4336H115.75V82.9688ZM154.617 75.7812C154.604 75.7812 154.598 75.7878 154.598 75.8008C155.223 76.4388 155.743 77.2266 156.16 78.1641C156.577 79.1016 156.785 80.0521 156.785 81.0156C156.785 83.112 156.062 84.8763 154.617 86.3086C153.185 87.7279 151.466 88.4375 149.461 88.4375H140.574V89.8438H149.461C151.049 89.8438 152.495 89.4987 153.797 88.8086C155.112 88.1185 156.173 87.0964 156.98 85.7422C157.788 84.375 158.191 82.7995 158.191 81.0156C158.191 79.1536 157.632 77.4479 156.512 75.8984C157.632 74.401 158.191 72.6107 158.191 70.5273C158.191 69.0039 157.794 67.5781 157 66.25C156.206 64.9089 155.132 63.8477 153.777 63.0664C152.436 62.2721 150.997 61.875 149.461 61.875H132.586V90H133.992V63.2812H149.461C151.44 63.2812 153.152 64.0039 154.598 65.4492C156.056 66.8815 156.785 68.5742 156.785 70.5273C156.785 72.5846 156.049 74.3294 154.578 75.7617L154.617 75.7812ZM149.461 82.8125C149.943 82.8125 150.346 82.6562 150.672 82.3438C150.997 82.0312 151.16 81.5885 151.16 81.0156C151.16 80.5469 150.984 80.1302 150.633 79.7656C150.294 79.401 149.904 79.2188 149.461 79.2188H140.555V77.8125H149.461C150.281 77.8125 151.004 78.138 151.629 78.7891C152.254 79.4271 152.566 80.1693 152.566 81.0156C152.566 81.9922 152.26 82.7734 151.648 83.3594C151.049 83.9323 150.32 84.2188 149.461 84.2188H140.574V82.8125H149.461ZM149.461 85.625C150.698 85.625 151.759 85.1953 152.645 84.3359C153.53 83.4766 153.973 82.3698 153.973 81.0156C153.973 79.7917 153.517 78.7174 152.605 77.793C151.707 76.8685 150.659 76.4062 149.461 76.4062H145.164H140.574V75H145.164H149.461C150.698 75 151.759 74.5833 152.645 73.75C153.53 72.9036 153.973 71.8294 153.973 70.5273C153.973 69.3555 153.517 68.3268 152.605 67.4414C151.707 66.543 150.659 66.0938 149.461 66.0938H136.805V90H135.398V64.6875H149.461C151.049 64.6875 152.43 65.2734 153.602 66.4453C154.786 67.6042 155.379 68.9648 155.379 70.5273C155.379 71.6732 155.086 72.7083 154.5 73.6328C153.927 74.5443 153.165 75.2474 152.215 75.7422C153.165 76.263 153.927 77.0052 154.5 77.9688C155.086 78.9193 155.379 79.9349 155.379 81.0156C155.379 82.7214 154.793 84.1536 153.621 85.3125C152.462 86.4583 151.076 87.0312 149.461 87.0312H140.574V85.625H149.461ZM149.461 72.1875C149.943 72.1875 150.346 72.0443 150.672 71.7578C150.997 71.4714 151.16 71.0612 151.16 70.5273C151.16 70.1107 150.984 69.7396 150.633 69.4141C150.294 69.0755 149.904 68.9062 149.461 68.9062H139.617V90H138.211V67.5H149.461C150.281 67.5 151.004 67.806 151.629 68.418C152.254 69.0299 152.566 69.7331 152.566 70.5273C152.566 71.4648 152.267 72.2135 151.668 72.7734C151.069 73.3203 150.333 73.5938 149.461 73.5938H140.574V72.1875H149.461ZM172.156 71.9727C171.062 73.0664 170.516 74.388 170.516 75.9375C170.516 77.487 171.062 78.8151 172.156 79.9219C173.263 81.0156 174.591 81.5625 176.141 81.5625C177.69 81.5625 179.012 81.0156 180.105 79.9219C181.212 78.8151 181.766 77.487 181.766 75.9375C181.766 74.388 181.212 73.0664 180.105 71.9727C179.012 70.8659 177.69 70.3125 176.141 70.3125C174.591 70.3125 173.263 70.8659 172.156 71.9727ZM171.16 80.918C169.793 79.5378 169.109 77.8776 169.109 75.9375C169.109 73.9974 169.793 72.3438 171.16 70.9766C172.54 69.5964 174.201 68.9062 176.141 68.9062C178.081 68.9062 179.734 69.5964 181.102 70.9766C182.482 72.3438 183.172 73.9974 183.172 75.9375C183.172 77.8776 182.482 79.5378 181.102 80.918C179.734 82.2852 178.081 82.9688 176.141 82.9688C174.201 82.9688 172.54 82.2852 171.16 80.918ZM170.164 69.9805C168.523 71.6341 167.703 73.6198 167.703 75.9375C167.703 78.2552 168.523 80.2409 170.164 81.8945C171.818 83.5482 173.81 84.375 176.141 84.375C178.471 84.375 180.457 83.5482 182.098 81.8945C183.751 80.2409 184.578 78.2552 184.578 75.9375C184.578 73.6198 183.751 71.6341 182.098 69.9805C180.457 68.3268 178.471 67.5 176.141 67.5C173.81 67.5 171.818 68.3268 170.164 69.9805ZM167.605 80.8789C166.733 79.3685 166.297 77.7214 166.297 75.9375C166.297 74.1536 166.733 72.5065 167.605 70.9961C168.491 69.4857 169.689 68.2943 171.199 67.4219C172.71 66.5365 174.357 66.0938 176.141 66.0938C177.924 66.0938 179.572 66.5365 181.082 67.4219C182.592 68.2943 183.784 69.4857 184.656 70.9961C185.542 72.5065 185.984 74.1536 185.984 75.9375C185.984 77.7214 185.542 79.3685 184.656 80.8789C183.784 82.3893 182.592 83.5872 181.082 84.4727C179.572 85.3451 177.924 85.7812 176.141 85.7812C174.357 85.7812 172.71 85.3451 171.199 84.4727C169.689 83.5872 168.491 82.3893 167.605 80.8789ZM165.77 71.582C165.184 72.9622 164.891 74.4141 164.891 75.9375C164.891 77.4609 165.184 78.9193 165.77 80.3125C166.368 81.6927 167.169 82.8906 168.172 83.9062C169.188 84.9089 170.385 85.7096 171.766 86.3086C173.159 86.8945 174.617 87.1875 176.141 87.1875C177.664 87.1875 179.116 86.8945 180.496 86.3086C181.889 85.7096 183.087 84.9089 184.09 83.9062C185.105 82.8906 185.906 81.6927 186.492 80.3125C187.091 78.9193 187.391 77.4609 187.391 75.9375C187.391 74.4141 187.091 72.9622 186.492 71.582C185.906 70.1888 185.105 68.9909 184.09 67.9883C183.087 66.9727 181.889 66.1719 180.496 65.5859C179.116 64.987 177.664 64.6875 176.141 64.6875C174.617 64.6875 173.159 64.987 171.766 65.5859C170.385 66.1719 169.188 66.9727 168.172 67.9883C167.169 68.9909 166.368 70.1888 165.77 71.582ZM164.48 80.8594C163.816 79.2969 163.484 77.6562 163.484 75.9375C163.484 74.2188 163.816 72.5781 164.48 71.0156C165.158 69.4531 166.056 68.112 167.176 66.9922C168.309 65.8594 169.656 64.9609 171.219 64.2969C172.781 63.6198 174.422 63.2812 176.141 63.2812C177.859 63.2812 179.5 63.6198 181.062 64.2969C182.625 64.9609 183.966 65.8594 185.086 66.9922C186.219 68.112 187.117 69.4531 187.781 71.0156C188.458 72.5781 188.797 74.2188 188.797 75.9375C188.797 77.6562 188.458 79.2969 187.781 80.8594C187.117 82.4219 186.219 83.7695 185.086 84.9023C183.966 86.0221 182.625 86.9206 181.062 87.5977C179.5 88.2617 177.859 88.5938 176.141 88.5938C174.422 88.5938 172.781 88.2617 171.219 87.5977C169.656 86.9206 168.309 86.0221 167.176 84.9023C166.056 83.7695 165.158 82.4219 164.48 80.8594ZM163.191 70.4883C162.449 72.2201 162.078 74.0365 162.078 75.9375C162.078 77.8385 162.449 79.6615 163.191 81.4062C163.934 83.138 164.93 84.6354 166.18 85.8984C167.443 87.1484 168.94 88.1445 170.672 88.8867C172.417 89.6289 174.24 90 176.141 90C178.042 90 179.858 89.6289 181.59 88.8867C183.335 88.1445 184.832 87.1484 186.082 85.8984C187.345 84.6354 188.348 83.138 189.09 81.4062C189.832 79.6615 190.203 77.8385 190.203 75.9375C190.203 74.0365 189.832 72.2201 189.09 70.4883C188.348 68.7435 187.345 67.2461 186.082 65.9961C184.832 64.7331 183.335 63.7305 181.59 62.9883C179.858 62.2461 178.042 61.875 176.141 61.875C174.24 61.875 172.417 62.2461 170.672 62.9883C168.94 63.7305 167.443 64.7331 166.18 65.9961C164.93 67.2461 163.934 68.7435 163.191 70.4883ZM161.902 81.9531C161.082 80.0391 160.672 78.0339 160.672 75.9375C160.672 73.8411 161.082 71.8424 161.902 69.9414C162.723 68.0273 163.823 66.3802 165.203 65C166.583 63.6198 168.224 62.5195 170.125 61.6992C172.039 60.8789 174.044 60.4688 176.141 60.4688C178.237 60.4688 180.236 60.8789 182.137 61.6992C184.051 62.5195 185.698 63.6198 187.078 65C188.458 66.3802 189.559 68.0273 190.379 69.9414C191.199 71.8424 191.609 73.8411 191.609 75.9375C191.609 78.0339 191.199 80.0391 190.379 81.9531C189.559 83.8542 188.458 85.4948 187.078 86.875C185.698 88.2552 184.051 89.3555 182.137 90.1758C180.236 90.9961 178.237 91.4062 176.141 91.4062C174.044 91.4062 172.039 90.9961 170.125 90.1758C168.224 89.3555 166.583 88.2552 165.203 86.875C163.823 85.4948 162.723 83.8542 161.902 81.9531ZM222.078 61.875H223.797L205.867 90H204.109L222.078 61.875ZM218.602 61.875H220.32L202.371 90H200.652L218.602 61.875ZM215.125 61.875H216.863L198.914 90H197.176L215.125 61.875ZM211.648 61.875H213.406L195.438 90H193.719L211.648 61.875ZM203.055 73.8086L202.195 75.1758L193.719 61.875H195.438L203.055 73.8086ZM209.207 86.1523L210.066 84.7852L213.406 90H211.648L209.207 86.1523ZM204.793 71.0938L203.934 72.4414L197.195 61.875H198.914L204.793 71.0938ZM210.945 83.418L211.805 82.0703L216.863 90H215.145L210.945 83.418ZM206.531 68.3594L205.672 69.7266L200.652 61.875H202.391L206.531 68.3594ZM212.664 80.7031L213.543 79.3359L220.34 90H218.602L212.664 80.7031ZM208.27 65.6445L207.391 67.0117L204.109 61.875H205.867L208.27 65.6445ZM214.402 77.9883L215.281 76.6406L223.797 90H222.078L214.402 77.9883Z" fill="#0B0B0B"/>
</svg>
