<svg width="350" height="75" viewBox="0 0 350 75" fill="none" xmlns="http://www.w3.org/2000/svg">
<rect width="350" height="75" fill="#D9D9D9"/>
<path d="M55.5312 50.9141V49.2266C56.625 49.2266 57.5391 48.9141 58.2734 48.2891C59.0234 47.6641 59.3984 46.8359 59.3984 45.8047V22.25H61.0859V45.8047C61.0859 47.2891 60.5469 48.5156 59.4688 49.4844C58.3906 50.4375 57.0781 50.9141 55.5312 50.9141ZM55.5312 54.2891V52.6016C57.5625 52.6016 59.2734 51.9453 60.6641 50.6328C62.0703 49.3047 62.7734 47.6953 62.7734 45.8047V22.25H64.4609V45.8047C64.4609 48.1484 63.5938 50.1484 61.8594 51.8047C60.1406 53.4609 58.0312 54.2891 55.5312 54.2891ZM55.5312 57.6641V55.9766C58.5 55.9766 61.0078 54.9844 63.0547 53C65.1172 51.0156 66.1484 48.6172 66.1484 45.8047V22.25H67.8359V45.8047C67.8359 47.9453 67.2891 49.9297 66.1953 51.7578C65.1172 53.5703 63.6328 55.0078 61.7422 56.0703C59.8516 57.1328 57.7812 57.6641 55.5312 57.6641ZM55.5312 61.0391V59.3516C57.4531 59.3516 59.2734 58.9922 60.9922 58.2734C62.7266 57.5547 64.2109 56.5938 65.4453 55.3906C66.6953 54.1719 67.6875 52.7266 68.4219 51.0547C69.1562 49.3828 69.5234 47.6328 69.5234 45.8047V22.25H71.2109V45.8047C71.2109 47.8672 70.7969 49.8359 69.9688 51.7109C69.1562 53.5859 68.0469 55.2031 66.6406 56.5625C65.25 57.9375 63.5859 59.0234 61.6484 59.8203C59.7109 60.6328 57.6719 61.0391 55.5312 61.0391ZM97.6484 41.0469V22.25H99.3359V41.0469C99.3359 42.8281 98.6484 44.3594 97.2734 45.6406C95.9141 46.9219 94.2734 47.5625 92.3516 47.5625C90.4297 47.5625 88.7812 46.9219 87.4062 45.6406C86.0469 44.3594 85.3672 42.8281 85.3672 41.0469V22.25H87.0547V41.0469C87.0547 42.375 87.5703 43.5156 88.6016 44.4688C89.6484 45.4062 90.8984 45.875 92.3516 45.875C93.8047 45.875 95.0469 45.4062 96.0781 44.4688C97.125 43.5156 97.6484 42.375 97.6484 41.0469ZM101.023 41.0469V22.25H102.711V41.0469C102.711 43.7812 101.695 46.1172 99.6641 48.0547C97.6328 49.9766 95.1953 50.9375 92.3516 50.9375C89.5078 50.9375 87.0703 49.9766 85.0391 48.0547C83.0078 46.1172 81.9922 43.7812 81.9922 41.0469V22.25H83.6797V41.0469C83.6797 43.3125 84.5234 45.25 86.2109 46.8594C87.9141 48.4531 89.9609 49.25 92.3516 49.25C94.7266 49.25 96.7656 48.4531 98.4688 46.8594C100.172 45.25 101.023 43.3125 101.023 41.0469ZM104.398 41.0469V22.25H106.086V41.0469C106.086 43.4375 105.469 45.6562 104.234 47.7031C103 49.7344 101.328 51.3438 99.2188 52.5312C97.1094 53.7188 94.8203 54.3125 92.3516 54.3125C89.8828 54.3125 87.5938 53.7188 85.4844 52.5312C83.375 51.3438 81.7031 49.7344 80.4688 47.7031C79.2344 45.6562 78.6172 43.4375 78.6172 41.0469V22.25H80.3047V41.0469C80.3047 43.125 80.8438 45.0547 81.9219 46.8359C83 48.6172 84.4609 50.0312 86.3047 51.0781C88.1641 52.1094 90.1797 52.625 92.3516 52.625C94.5234 52.625 96.5312 52.1094 98.375 51.0781C100.234 50.0312 101.703 48.6172 102.781 46.8359C103.859 45.0547 104.398 43.125 104.398 41.0469ZM107.773 41.0469V22.25H109.461V41.0469C109.461 43.2969 109.008 45.4531 108.102 47.5156C107.195 49.5625 105.977 51.3281 104.445 52.8125C102.914 54.2969 101.094 55.4766 98.9844 56.3516C96.875 57.2422 94.6641 57.6875 92.3516 57.6875C90.0391 57.6875 87.8281 57.2422 85.7188 56.3516C83.6094 55.4766 81.7891 54.2969 80.2578 52.8125C78.7266 51.3281 77.5078 49.5625 76.6016 47.5156C75.6953 45.4531 75.2422 43.2969 75.2422 41.0469V22.25H76.9297V41.0469C76.9297 43.7344 77.6172 46.2266 78.9922 48.5234C80.3828 50.8203 82.2578 52.6406 84.6172 53.9844C86.9922 55.3281 89.5703 56 92.3516 56C95.1328 56 97.7031 55.3281 100.062 53.9844C102.438 52.6406 104.312 50.8203 105.688 48.5234C107.078 46.2266 107.773 43.7344 107.773 41.0469ZM149.164 22.25L139.766 39.2656L149.023 56H147.148L137.891 39.2656L147.289 22.25H149.164ZM145.391 22.25L135.992 39.2656L145.25 56H143.375L134.117 39.2656L143.516 22.25H145.391ZM141.617 22.25L132.219 39.2656L141.477 56H139.602L130.344 39.2656L139.742 22.25H141.617ZM137.844 22.25L128.422 39.2656L137.703 56H135.828L126.547 39.2656L135.969 22.25H137.844ZM123.828 22.25V56H125.516V22.25H123.828ZM120.453 22.25V56H122.141V22.25H120.453ZM117.078 22.25V56H118.766V22.25H117.078ZM113.703 22.25V56H115.391V22.25H113.703ZM160.625 56H158.938V22.25H160.625V56ZM157.25 56H155.562V22.25H157.25V56ZM153.875 56H152.188V22.25H153.875V56ZM164 47.5625H180.148V49.25H164V50.9375H180.148V52.625H164V54.3125H180.148V56H162.312V22.25H180.148V23.9375H164V25.625H180.148V27.3125H164V29H180.148V30.6875H164V34.8828H179.211V36.5703H164V38.2578H179.211V39.9453H164V41.6328H179.211V43.3203H164V47.5625ZM210.641 38.9375C210.625 38.9375 210.617 38.9453 210.617 38.9609C211.367 39.7266 211.992 40.6719 212.492 41.7969C212.992 42.9219 213.242 44.0625 213.242 45.2188C213.242 47.7344 212.375 49.8516 210.641 51.5703C208.922 53.2734 206.859 54.125 204.453 54.125H193.789V55.8125H204.453C206.359 55.8125 208.094 55.3984 209.656 54.5703C211.234 53.7422 212.508 52.5156 213.477 50.8906C214.445 49.25 214.93 47.3594 214.93 45.2188C214.93 42.9844 214.258 40.9375 212.914 39.0781C214.258 37.2812 214.93 35.1328 214.93 32.6328C214.93 30.8047 214.453 29.0938 213.5 27.5C212.547 25.8906 211.258 24.6172 209.633 23.6797C208.023 22.7266 206.297 22.25 204.453 22.25H184.203V56H185.891V23.9375H204.453C206.828 23.9375 208.883 24.8047 210.617 26.5391C212.367 28.2578 213.242 30.2891 213.242 32.6328C213.242 35.1016 212.359 37.1953 210.594 38.9141L210.641 38.9375ZM204.453 47.375C205.031 47.375 205.516 47.1875 205.906 46.8125C206.297 46.4375 206.492 45.9062 206.492 45.2188C206.492 44.6562 206.281 44.1562 205.859 43.7188C205.453 43.2812 204.984 43.0625 204.453 43.0625H193.766V41.375H204.453C205.438 41.375 206.305 41.7656 207.055 42.5469C207.805 43.3125 208.18 44.2031 208.18 45.2188C208.18 46.3906 207.812 47.3281 207.078 48.0312C206.359 48.7188 205.484 49.0625 204.453 49.0625H193.789V47.375H204.453ZM204.453 50.75C205.938 50.75 207.211 50.2344 208.273 49.2031C209.336 48.1719 209.867 46.8438 209.867 45.2188C209.867 43.75 209.32 42.4609 208.227 41.3516C207.148 40.2422 205.891 39.6875 204.453 39.6875H199.297H193.789V38H199.297H204.453C205.938 38 207.211 37.5 208.273 36.5C209.336 35.4844 209.867 34.1953 209.867 32.6328C209.867 31.2266 209.32 29.9922 208.227 28.9297C207.148 27.8516 205.891 27.3125 204.453 27.3125H189.266V56H187.578V25.625H204.453C206.359 25.625 208.016 26.3281 209.422 27.7344C210.844 29.125 211.555 30.7578 211.555 32.6328C211.555 34.0078 211.203 35.25 210.5 36.3594C209.812 37.4531 208.898 38.2969 207.758 38.8906C208.898 39.5156 209.812 40.4062 210.5 41.5625C211.203 42.7031 211.555 43.9219 211.555 45.2188C211.555 47.2656 210.852 48.9844 209.445 50.375C208.055 51.75 206.391 52.4375 204.453 52.4375H193.789V50.75H204.453ZM204.453 34.625C205.031 34.625 205.516 34.4531 205.906 34.1094C206.297 33.7656 206.492 33.2734 206.492 32.6328C206.492 32.1328 206.281 31.6875 205.859 31.2969C205.453 30.8906 204.984 30.6875 204.453 30.6875H192.641V56H190.953V29H204.453C205.438 29 206.305 29.3672 207.055 30.1016C207.805 30.8359 208.18 31.6797 208.18 32.6328C208.18 33.7578 207.82 34.6562 207.102 35.3281C206.383 35.9844 205.5 36.3125 204.453 36.3125H193.789V34.625H204.453ZM231.688 34.3672C230.375 35.6797 229.719 37.2656 229.719 39.125C229.719 40.9844 230.375 42.5781 231.688 43.9062C233.016 45.2188 234.609 45.875 236.469 45.875C238.328 45.875 239.914 45.2188 241.227 43.9062C242.555 42.5781 243.219 40.9844 243.219 39.125C243.219 37.2656 242.555 35.6797 241.227 34.3672C239.914 33.0391 238.328 32.375 236.469 32.375C234.609 32.375 233.016 33.0391 231.688 34.3672ZM230.492 45.1016C228.852 43.4453 228.031 41.4531 228.031 39.125C228.031 36.7969 228.852 34.8125 230.492 33.1719C232.148 31.5156 234.141 30.6875 236.469 30.6875C238.797 30.6875 240.781 31.5156 242.422 33.1719C244.078 34.8125 244.906 36.7969 244.906 39.125C244.906 41.4531 244.078 43.4453 242.422 45.1016C240.781 46.7422 238.797 47.5625 236.469 47.5625C234.141 47.5625 232.148 46.7422 230.492 45.1016ZM229.297 31.9766C227.328 33.9609 226.344 36.3438 226.344 39.125C226.344 41.9062 227.328 44.2891 229.297 46.2734C231.281 48.2578 233.672 49.25 236.469 49.25C239.266 49.25 241.648 48.2578 243.617 46.2734C245.602 44.2891 246.594 41.9062 246.594 39.125C246.594 36.3438 245.602 33.9609 243.617 31.9766C241.648 29.9922 239.266 29 236.469 29C233.672 29 231.281 29.9922 229.297 31.9766ZM226.227 45.0547C225.18 43.2422 224.656 41.2656 224.656 39.125C224.656 36.9844 225.18 35.0078 226.227 33.1953C227.289 31.3828 228.727 29.9531 230.539 28.9062C232.352 27.8438 234.328 27.3125 236.469 27.3125C238.609 27.3125 240.586 27.8438 242.398 28.9062C244.211 29.9531 245.641 31.3828 246.688 33.1953C247.75 35.0078 248.281 36.9844 248.281 39.125C248.281 41.2656 247.75 43.2422 246.688 45.0547C245.641 46.8672 244.211 48.3047 242.398 49.3672C240.586 50.4141 238.609 50.9375 236.469 50.9375C234.328 50.9375 232.352 50.4141 230.539 49.3672C228.727 48.3047 227.289 46.8672 226.227 45.0547ZM224.023 33.8984C223.32 35.5547 222.969 37.2969 222.969 39.125C222.969 40.9531 223.32 42.7031 224.023 44.375C224.742 46.0312 225.703 47.4688 226.906 48.6875C228.125 49.8906 229.562 50.8516 231.219 51.5703C232.891 52.2734 234.641 52.625 236.469 52.625C238.297 52.625 240.039 52.2734 241.695 51.5703C243.367 50.8516 244.805 49.8906 246.008 48.6875C247.227 47.4688 248.188 46.0312 248.891 44.375C249.609 42.7031 249.969 40.9531 249.969 39.125C249.969 37.2969 249.609 35.5547 248.891 33.8984C248.188 32.2266 247.227 30.7891 246.008 29.5859C244.805 28.3672 243.367 27.4062 241.695 26.7031C240.039 25.9844 238.297 25.625 236.469 25.625C234.641 25.625 232.891 25.9844 231.219 26.7031C229.562 27.4062 228.125 28.3672 226.906 29.5859C225.703 30.7891 224.742 32.2266 224.023 33.8984ZM222.477 45.0312C221.68 43.1562 221.281 41.1875 221.281 39.125C221.281 37.0625 221.68 35.0938 222.477 33.2188C223.289 31.3438 224.367 29.7344 225.711 28.3906C227.07 27.0312 228.688 25.9531 230.562 25.1562C232.438 24.3438 234.406 23.9375 236.469 23.9375C238.531 23.9375 240.5 24.3438 242.375 25.1562C244.25 25.9531 245.859 27.0312 247.203 28.3906C248.562 29.7344 249.641 31.3438 250.438 33.2188C251.25 35.0938 251.656 37.0625 251.656 39.125C251.656 41.1875 251.25 43.1562 250.438 45.0312C249.641 46.9062 248.562 48.5234 247.203 49.8828C245.859 51.2266 244.25 52.3047 242.375 53.1172C240.5 53.9141 238.531 54.3125 236.469 54.3125C234.406 54.3125 232.438 53.9141 230.562 53.1172C228.688 52.3047 227.07 51.2266 225.711 49.8828C224.367 48.5234 223.289 46.9062 222.477 45.0312ZM220.93 32.5859C220.039 34.6641 219.594 36.8438 219.594 39.125C219.594 41.4062 220.039 43.5938 220.93 45.6875C221.82 47.7656 223.016 49.5625 224.516 51.0781C226.031 52.5781 227.828 53.7734 229.906 54.6641C232 55.5547 234.188 56 236.469 56C238.75 56 240.93 55.5547 243.008 54.6641C245.102 53.7734 246.898 52.5781 248.398 51.0781C249.914 49.5625 251.117 47.7656 252.008 45.6875C252.898 43.5938 253.344 41.4062 253.344 39.125C253.344 36.8438 252.898 34.6641 252.008 32.5859C251.117 30.4922 249.914 28.6953 248.398 27.1953C246.898 25.6797 245.102 24.4766 243.008 23.5859C240.93 22.6953 238.75 22.25 236.469 22.25C234.188 22.25 232 22.6953 229.906 23.5859C227.828 24.4766 226.031 25.6797 224.516 27.1953C223.016 28.6953 221.82 30.4922 220.93 32.5859ZM219.383 46.3438C218.398 44.0469 217.906 41.6406 217.906 39.125C217.906 36.6094 218.398 34.2109 219.383 31.9297C220.367 29.6328 221.688 27.6562 223.344 26C225 24.3438 226.969 23.0234 229.25 22.0391C231.547 21.0547 233.953 20.5625 236.469 20.5625C238.984 20.5625 241.383 21.0547 243.664 22.0391C245.961 23.0234 247.938 24.3438 249.594 26C251.25 27.6562 252.57 29.6328 253.555 31.9297C254.539 34.2109 255.031 36.6094 255.031 39.125C255.031 41.6406 254.539 44.0469 253.555 46.3438C252.57 48.625 251.25 50.5938 249.594 52.25C247.938 53.9062 245.961 55.2266 243.664 56.2109C241.383 57.1953 238.984 57.6875 236.469 57.6875C233.953 57.6875 231.547 57.1953 229.25 56.2109C226.969 55.2266 225 53.9062 223.344 52.25C221.688 50.5938 220.367 48.625 219.383 46.3438ZM291.594 22.25H293.656L272.141 56H270.031L291.594 22.25ZM287.422 22.25H289.484L267.945 56H265.883L287.422 22.25ZM283.25 22.25H285.336L263.797 56H261.711L283.25 22.25ZM279.078 22.25H281.188L259.625 56H257.562L279.078 22.25ZM268.766 36.5703L267.734 38.2109L257.562 22.25H259.625L268.766 36.5703ZM276.148 51.3828L277.18 49.7422L281.188 56H279.078L276.148 51.3828ZM270.852 33.3125L269.82 34.9297L261.734 22.25H263.797L270.852 33.3125ZM278.234 48.1016L279.266 46.4844L285.336 56H283.273L278.234 48.1016ZM272.938 30.0312L271.906 31.6719L265.883 22.25H267.969L272.938 30.0312ZM280.297 44.8438L281.352 43.2031L289.508 56H287.422L280.297 44.8438ZM275.023 26.7734L273.969 28.4141L270.031 22.25H272.141L275.023 26.7734ZM282.383 41.5859L283.438 39.9688L293.656 56H291.594L282.383 41.5859Z" fill="#0B0B0B"/>
</svg>
