<svg width="851" height="315" viewBox="0 0 851 315" fill="none" xmlns="http://www.w3.org/2000/svg">
<rect width="851" height="315" fill="#1E1E1E"/>
<path d="M108.25 192.438V187.938C111.167 187.938 113.604 187.104 115.562 185.438C117.562 183.771 118.562 181.562 118.562 178.812V116H123.062V178.812C123.062 182.771 121.625 186.042 118.75 188.625C115.875 191.167 112.375 192.438 108.25 192.438ZM108.25 201.438V196.938C113.667 196.938 118.229 195.188 121.938 191.688C125.688 188.146 127.562 183.854 127.562 178.812V116H132.062V178.812C132.062 185.062 129.75 190.396 125.125 194.812C120.542 199.229 114.917 201.438 108.25 201.438ZM108.25 210.438V205.938C116.167 205.938 122.854 203.292 128.312 198C133.812 192.708 136.562 186.312 136.562 178.812V116H141.062V178.812C141.062 184.521 139.604 189.812 136.688 194.688C133.812 199.521 129.854 203.354 124.812 206.188C119.771 209.021 114.25 210.438 108.25 210.438ZM108.25 219.438V214.938C113.375 214.938 118.229 213.979 122.812 212.062C127.438 210.146 131.396 207.583 134.688 204.375C138.021 201.125 140.667 197.271 142.625 192.812C144.583 188.354 145.562 183.688 145.562 178.812V116H150.062V178.812C150.062 184.312 148.958 189.562 146.75 194.562C144.583 199.562 141.625 203.875 137.875 207.5C134.167 211.167 129.729 214.062 124.562 216.188C119.396 218.354 113.958 219.438 108.25 219.438ZM220.562 166.125V116H225.062V166.125C225.062 170.875 223.229 174.958 219.562 178.375C215.938 181.792 211.562 183.5 206.438 183.5C201.312 183.5 196.917 181.792 193.25 178.375C189.625 174.958 187.812 170.875 187.812 166.125V116H192.312V166.125C192.312 169.667 193.688 172.708 196.438 175.25C199.229 177.75 202.562 179 206.438 179C210.312 179 213.625 177.75 216.375 175.25C219.167 172.708 220.562 169.667 220.562 166.125ZM229.562 166.125V116H234.062V166.125C234.062 173.417 231.354 179.646 225.938 184.812C220.521 189.938 214.021 192.5 206.438 192.5C198.854 192.5 192.354 189.938 186.938 184.812C181.521 179.646 178.812 173.417 178.812 166.125V116H183.312V166.125C183.312 172.167 185.562 177.333 190.062 181.625C194.604 185.875 200.062 188 206.438 188C212.771 188 218.208 185.875 222.75 181.625C227.292 177.333 229.562 172.167 229.562 166.125ZM238.562 166.125V116H243.062V166.125C243.062 172.5 241.417 178.417 238.125 183.875C234.833 189.292 230.375 193.583 224.75 196.75C219.125 199.917 213.021 201.5 206.438 201.5C199.854 201.5 193.75 199.917 188.125 196.75C182.5 193.583 178.042 189.292 174.75 183.875C171.458 178.417 169.812 172.5 169.812 166.125V116H174.312V166.125C174.312 171.667 175.75 176.812 178.625 181.562C181.5 186.312 185.396 190.083 190.312 192.875C195.271 195.625 200.646 197 206.438 197C212.229 197 217.583 195.625 222.5 192.875C227.458 190.083 231.375 186.312 234.25 181.562C237.125 176.812 238.562 171.667 238.562 166.125ZM247.562 166.125V116H252.062V166.125C252.062 172.125 250.854 177.875 248.438 183.375C246.021 188.833 242.771 193.542 238.688 197.5C234.604 201.458 229.75 204.604 224.125 206.938C218.5 209.312 212.604 210.5 206.438 210.5C200.271 210.5 194.375 209.312 188.75 206.938C183.125 204.604 178.271 201.458 174.188 197.5C170.104 193.542 166.854 188.833 164.438 183.375C162.021 177.875 160.812 172.125 160.812 166.125V116H165.312V166.125C165.312 173.292 167.146 179.938 170.812 186.062C174.521 192.188 179.521 197.042 185.812 200.625C192.146 204.208 199.021 206 206.438 206C213.854 206 220.708 204.208 227 200.625C233.333 197.042 238.333 192.188 242 186.062C245.708 179.938 247.562 173.292 247.562 166.125ZM357.938 116L332.875 161.375L357.562 206H352.562L327.875 161.375L352.938 116H357.938ZM347.875 116L322.812 161.375L347.5 206H342.5L317.812 161.375L342.875 116H347.875ZM337.812 116L312.75 161.375L337.438 206H332.438L307.75 161.375L332.812 116H337.812ZM327.75 116L302.625 161.375L327.375 206H322.375L297.625 161.375L322.75 116H327.75ZM290.375 116V206H294.875V116H290.375ZM281.375 116V206H285.875V116H281.375ZM272.375 116V206H276.875V116H272.375ZM263.375 116V206H267.875V116H263.375ZM388.5 206H384V116H388.5V206ZM379.5 206H375V116H379.5V206ZM370.5 206H366V116H370.5V206ZM397.5 183.5H440.562V188H397.5V192.5H440.562V197H397.5V201.5H440.562V206H393V116H440.562V120.5H397.5V125H440.562V129.5H397.5V134H440.562V138.5H397.5V149.688H438.062V154.188H397.5V158.688H438.062V163.188H397.5V167.688H438.062V172.188H397.5V183.5ZM521.875 160.5C521.833 160.5 521.812 160.521 521.812 160.562C523.812 162.604 525.479 165.125 526.812 168.125C528.146 171.125 528.812 174.167 528.812 177.25C528.812 183.958 526.5 189.604 521.875 194.188C517.292 198.729 511.792 201 505.375 201H476.938V205.5H505.375C510.458 205.5 515.083 204.396 519.25 202.188C523.458 199.979 526.854 196.708 529.438 192.375C532.021 188 533.312 182.958 533.312 177.25C533.312 171.292 531.521 165.833 527.938 160.875C531.521 156.083 533.312 150.354 533.312 143.688C533.312 138.812 532.042 134.25 529.5 130C526.958 125.708 523.521 122.312 519.188 119.812C514.896 117.271 510.292 116 505.375 116H451.375V206H455.875V120.5H505.375C511.708 120.5 517.188 122.812 521.812 127.438C526.479 132.021 528.812 137.438 528.812 143.688C528.812 150.271 526.458 155.854 521.75 160.438L521.875 160.5ZM505.375 183C506.917 183 508.208 182.5 509.25 181.5C510.292 180.5 510.812 179.083 510.812 177.25C510.812 175.75 510.25 174.417 509.125 173.25C508.042 172.083 506.792 171.5 505.375 171.5H476.875V167H505.375C508 167 510.312 168.042 512.312 170.125C514.312 172.167 515.312 174.542 515.312 177.25C515.312 180.375 514.333 182.875 512.375 184.75C510.458 186.583 508.125 187.5 505.375 187.5H476.938V183H505.375ZM505.375 192C509.333 192 512.729 190.625 515.562 187.875C518.396 185.125 519.812 181.583 519.812 177.25C519.812 173.333 518.354 169.896 515.438 166.938C512.562 163.979 509.208 162.5 505.375 162.5H491.625H476.938V158H491.625H505.375C509.333 158 512.729 156.667 515.562 154C518.396 151.292 519.812 147.854 519.812 143.688C519.812 139.938 518.354 136.646 515.438 133.812C512.562 130.938 509.208 129.5 505.375 129.5H464.875V206H460.375V125H505.375C510.458 125 514.875 126.875 518.625 130.625C522.417 134.333 524.312 138.688 524.312 143.688C524.312 147.354 523.375 150.667 521.5 153.625C519.667 156.542 517.229 158.792 514.188 160.375C517.229 162.042 519.667 164.417 521.5 167.5C523.375 170.542 524.312 173.792 524.312 177.25C524.312 182.708 522.438 187.292 518.688 191C514.979 194.667 510.542 196.5 505.375 196.5H476.938V192H505.375ZM505.375 149C506.917 149 508.208 148.542 509.25 147.625C510.292 146.708 510.812 145.396 510.812 143.688C510.812 142.354 510.25 141.167 509.125 140.125C508.042 139.042 506.792 138.5 505.375 138.5H473.875V206H469.375V134H505.375C508 134 510.312 134.979 512.312 136.938C514.312 138.896 515.312 141.146 515.312 143.688C515.312 146.688 514.354 149.083 512.438 150.875C510.521 152.625 508.167 153.5 505.375 153.5H476.938V149H505.375ZM578 148.312C574.5 151.812 572.75 156.042 572.75 161C572.75 165.958 574.5 170.208 578 173.75C581.542 177.25 585.792 179 590.75 179C595.708 179 599.938 177.25 603.438 173.75C606.979 170.208 608.75 165.958 608.75 161C608.75 156.042 606.979 151.812 603.438 148.312C599.938 144.771 595.708 143 590.75 143C585.792 143 581.542 144.771 578 148.312ZM574.812 176.938C570.438 172.521 568.25 167.208 568.25 161C568.25 154.792 570.438 149.5 574.812 145.125C579.229 140.708 584.542 138.5 590.75 138.5C596.958 138.5 602.25 140.708 606.625 145.125C611.042 149.5 613.25 154.792 613.25 161C613.25 167.208 611.042 172.521 606.625 176.938C602.25 181.312 596.958 183.5 590.75 183.5C584.542 183.5 579.229 181.312 574.812 176.938ZM571.625 141.938C566.375 147.229 563.75 153.583 563.75 161C563.75 168.417 566.375 174.771 571.625 180.062C576.917 185.354 583.292 188 590.75 188C598.208 188 604.562 185.354 609.812 180.062C615.104 174.771 617.75 168.417 617.75 161C617.75 153.583 615.104 147.229 609.812 141.938C604.562 136.646 598.208 134 590.75 134C583.292 134 576.917 136.646 571.625 141.938ZM563.438 176.812C560.646 171.979 559.25 166.708 559.25 161C559.25 155.292 560.646 150.021 563.438 145.188C566.271 140.354 570.104 136.542 574.938 133.75C579.771 130.917 585.042 129.5 590.75 129.5C596.458 129.5 601.729 130.917 606.562 133.75C611.396 136.542 615.208 140.354 618 145.188C620.833 150.021 622.25 155.292 622.25 161C622.25 166.708 620.833 171.979 618 176.812C615.208 181.646 611.396 185.479 606.562 188.312C601.729 191.104 596.458 192.5 590.75 192.5C585.042 192.5 579.771 191.104 574.938 188.312C570.104 185.479 566.271 181.646 563.438 176.812ZM557.562 147.062C555.688 151.479 554.75 156.125 554.75 161C554.75 165.875 555.688 170.542 557.562 175C559.479 179.417 562.042 183.25 565.25 186.5C568.5 189.708 572.333 192.271 576.75 194.188C581.208 196.062 585.875 197 590.75 197C595.625 197 600.271 196.062 604.688 194.188C609.146 192.271 612.979 189.708 616.188 186.5C619.438 183.25 622 179.417 623.875 175C625.792 170.542 626.75 165.875 626.75 161C626.75 156.125 625.792 151.479 623.875 147.062C622 142.604 619.438 138.771 616.188 135.562C612.979 132.312 609.146 129.75 604.688 127.875C600.271 125.958 595.625 125 590.75 125C585.875 125 581.208 125.958 576.75 127.875C572.333 129.75 568.5 132.312 565.25 135.562C562.042 138.771 559.479 142.604 557.562 147.062ZM553.438 176.75C551.312 171.75 550.25 166.5 550.25 161C550.25 155.5 551.312 150.25 553.438 145.25C555.604 140.25 558.479 135.958 562.062 132.375C565.688 128.75 570 125.875 575 123.75C580 121.583 585.25 120.5 590.75 120.5C596.25 120.5 601.5 121.583 606.5 123.75C611.5 125.875 615.792 128.75 619.375 132.375C623 135.958 625.875 140.25 628 145.25C630.167 150.25 631.25 155.5 631.25 161C631.25 166.5 630.167 171.75 628 176.75C625.875 181.75 623 186.062 619.375 189.688C615.792 193.271 611.5 196.146 606.5 198.312C601.5 200.438 596.25 201.5 590.75 201.5C585.25 201.5 580 200.438 575 198.312C570 196.146 565.688 193.271 562.062 189.688C558.479 186.062 555.604 181.75 553.438 176.75ZM549.312 143.562C546.938 149.104 545.75 154.917 545.75 161C545.75 167.083 546.938 172.917 549.312 178.5C551.688 184.042 554.875 188.833 558.875 192.875C562.917 196.875 567.708 200.062 573.25 202.438C578.833 204.812 584.667 206 590.75 206C596.833 206 602.646 204.812 608.188 202.438C613.771 200.062 618.562 196.875 622.562 192.875C626.604 188.833 629.812 184.042 632.188 178.5C634.562 172.917 635.75 167.083 635.75 161C635.75 154.917 634.562 149.104 632.188 143.562C629.812 137.979 626.604 133.188 622.562 129.188C618.562 125.146 613.771 121.938 608.188 119.562C602.646 117.188 596.833 116 590.75 116C584.667 116 578.833 117.188 573.25 119.562C567.708 121.938 562.917 125.146 558.875 129.188C554.875 133.188 551.688 137.979 549.312 143.562ZM545.188 180.25C542.562 174.125 541.25 167.708 541.25 161C541.25 154.292 542.562 147.896 545.188 141.812C547.812 135.688 551.333 130.417 555.75 126C560.167 121.583 565.417 118.062 571.5 115.438C577.625 112.812 584.042 111.5 590.75 111.5C597.458 111.5 603.854 112.812 609.938 115.438C616.062 118.062 621.333 121.583 625.75 126C630.167 130.417 633.688 135.688 636.312 141.812C638.938 147.896 640.25 154.292 640.25 161C640.25 167.708 638.938 174.125 636.312 180.25C633.688 186.333 630.167 191.583 625.75 196C621.333 200.417 616.062 203.938 609.938 206.562C603.854 209.188 597.458 210.5 590.75 210.5C584.042 210.5 577.625 209.188 571.5 206.562C565.417 203.938 560.167 200.417 555.75 196C551.333 191.583 547.812 186.333 545.188 180.25ZM737.75 116H743.25L685.875 206H680.25L737.75 116ZM726.625 116H732.125L674.688 206H669.188L726.625 116ZM715.5 116H721.062L663.625 206H658.062L715.5 116ZM704.375 116H710L652.5 206H647L704.375 116ZM676.875 154.188L674.125 158.562L647 116H652.5L676.875 154.188ZM696.562 193.688L699.312 189.312L710 206H704.375L696.562 193.688ZM682.438 145.5L679.688 149.812L658.125 116H663.625L682.438 145.5ZM702.125 184.938L704.875 180.625L721.062 206H715.562L702.125 184.938ZM688 136.75L685.25 141.125L669.188 116H674.75L688 136.75ZM707.625 176.25L710.438 171.875L732.188 206H726.625L707.625 176.25ZM693.562 128.062L690.75 132.438L680.25 116H685.875L693.562 128.062ZM713.188 167.562L716 163.25L743.25 206H737.75L713.188 167.562Z" fill="#D9D9D9"/>
</svg>
